<svg width="301" height="301" viewBox="0 0 301 301" fill="none" xmlns="http://www.w3.org/2000/svg">
<path d="M224.552 57.763L165.757 32.8057C123.886 15.0326 75.5349 34.5677 57.7618 76.4385L32.8045 135.234C15.0314 177.105 34.5665 225.456 76.4373 243.229L135.233 268.186C177.104 285.96 225.455 266.424 243.228 224.554L268.185 165.758C285.958 123.887 266.423 75.5361 224.552 57.763Z" fill="url(#paint0_linear)"/>
<path fill-rule="evenodd" clip-rule="evenodd" d="M93.0376 58.155L123.887 45.0601C150.775 33.6467 163.41 31.9512 176.797 33.155C190.185 34.3588 202.382 39.2869 212.849 47.7208C223.315 56.1547 231.226 66.1508 242.639 93.039L255.734 123.889C267.148 150.777 268.843 163.411 267.639 176.799C266.435 190.186 261.507 202.384 253.073 212.85C244.64 223.317 234.643 231.227 207.755 242.641L176.906 255.736C150.017 267.149 137.383 268.844 123.996 267.641C110.608 266.437 98.4104 261.509 87.9439 253.075C77.4774 244.641 69.5669 234.645 58.1536 207.757L45.0587 176.907C33.6453 150.019 31.9498 137.385 33.1536 123.997C34.3574 110.609 39.2855 98.4118 47.7194 87.9453C56.1533 77.4788 66.1494 69.5683 93.0376 58.155Z" fill="url(#paint1_linear)"/>
<path fill-rule="evenodd" clip-rule="evenodd" d="M183.472 109.456C202.468 109.456 216.551 123.375 216.551 145.973V191.334H189.859V150.231C189.859 138.932 184.455 133.528 175.612 133.528C171.518 133.528 167.424 135.329 163.494 140.078C163.658 142.043 163.822 144.008 163.822 145.973V191.334H137.293V150.231C137.293 138.932 131.726 133.528 123.047 133.528C118.953 133.528 115.022 135.493 111.092 140.569V191.334H84.564V111.912H111.092V116.661C116.496 112.076 122.064 109.456 130.907 109.456C140.896 109.456 149.411 113.222 155.306 120.1C163.658 112.731 171.682 109.456 183.472 109.456Z" fill="white"/>
<ellipse cx="236" cy="236" rx="54" ry="31" fill="white"/>
<path d="M236 205.039C202.26 205.039 174.906 218.901 174.906 236C174.906 253.099 202.26 266.961 236 266.961C269.74 266.961 297.094 253.099 297.094 236C297.094 218.901 269.74 205.039 236 205.039ZM220.103 242.032C218.645 243.396 217.026 243.959 215.243 244.539C213.46 245.12 211.191 245 208.432 245H202.179L200.446 255H193.145L199.66 221H213.7C217.924 221 221.005 222.215 222.942 224.432C224.879 226.649 225.461 229.796 224.689 233.769C224.37 235.406 223.833 236.928 223.075 238.284C222.316 239.641 221.325 240.908 220.103 242.032ZM241.414 245L244.295 230.58C244.623 228.892 244.503 227.638 243.934 227.025C243.364 226.411 242.152 226 240.299 226H234.509L230.778 245H223.534L230.049 212H237.293L235.561 221H242.014C246.075 221 248.875 221.815 250.416 223.231C251.957 224.647 252.419 226.587 251.803 229.759L248.772 245H241.414ZM281.673 233.822C281.355 235.459 280.817 236.955 280.06 238.31C279.302 239.667 278.312 240.908 277.089 242.032C275.631 243.396 274.011 243.959 272.229 244.539C270.447 245.12 268.176 245 265.417 245H259.164L257.432 255H250.131L256.645 221H270.686C274.91 221 277.991 222.215 279.927 224.432C281.862 226.649 282.445 229.85 281.673 233.822ZM267.919 226H262.918L260.191 240H264.633C267.575 240 269.769 239.71 271.209 238.6C272.651 237.492 273.622 235.772 274.127 233.179C274.611 230.688 274.391 228.745 273.467 227.721C272.542 226.697 270.693 226 267.919 226ZM210.934 226H205.932L203.205 240H207.646C210.589 240 212.782 239.71 214.223 238.6C215.664 237.492 216.636 235.772 217.14 233.179C217.624 230.688 217.404 228.745 216.48 227.721C215.556 226.697 213.708 226 210.934 226Z" fill="#6181B6"/>
<defs>
<linearGradient id="paint0_linear" x1="102.369" y1="5.89937" x2="211.047" y2="300.367" gradientUnits="userSpaceOnUse">
<stop stop-color="#E41359"/>
<stop offset="1" stop-color="#F23C79"/>
</linearGradient>
<linearGradient id="paint1_linear" x1="108.462" y1="51.6075" x2="192.33" y2="249.188" gradientUnits="userSpaceOnUse">
<stop stop-color="#24222F"/>
<stop offset="1" stop-color="#2B2937"/>
</linearGradient>
</defs>
</svg>
