<svg width="301" height="301" viewBox="0 0 301 301" fill="none" xmlns="http://www.w3.org/2000/svg">
<path d="M224.301 57.5127L165.506 32.5555C123.635 14.7824 75.2839 34.3174 57.5108 76.1883L32.5535 134.984C14.7804 176.855 34.3155 225.206 76.1864 242.979L134.982 267.936C176.853 285.709 225.204 266.174 242.977 224.303L267.934 165.508C285.707 123.637 266.172 75.2859 224.301 57.5127Z" fill="url(#paint0_linear)"/>
<path fill-rule="evenodd" clip-rule="evenodd" d="M92.7866 57.9047L123.636 44.8098C150.524 33.3965 163.159 31.7009 176.546 32.9047C189.934 34.1085 202.131 39.0366 212.598 47.4705C223.064 55.9044 230.975 65.9006 242.388 92.7887L255.483 123.638C266.897 150.527 268.592 163.161 267.388 176.548C266.184 189.936 261.256 202.134 252.822 212.6C244.389 223.067 234.392 230.977 207.504 242.39L176.655 255.485C149.766 266.899 137.132 268.594 123.745 267.39C110.357 266.187 98.1594 261.259 87.6929 252.825C77.2264 244.391 69.3159 234.395 57.9026 207.506L44.8077 176.657C33.3943 149.769 31.6988 137.134 32.9026 123.747C34.1064 110.359 39.0345 98.1615 47.4684 87.695C55.9023 77.2285 65.8985 69.3181 92.7866 57.9047Z" fill="url(#paint1_linear)"/>
<path fill-rule="evenodd" clip-rule="evenodd" d="M183.221 109.206C202.217 109.206 216.3 123.125 216.3 145.723V191.083H189.608V149.981C189.608 138.682 184.204 133.278 175.361 133.278C171.267 133.278 167.173 135.079 163.243 139.828C163.407 141.793 163.571 143.758 163.571 145.723V191.083H137.042V149.981C137.042 138.682 131.475 133.278 122.796 133.278C118.702 133.278 114.772 135.243 110.841 140.319V191.083H84.313V111.662H110.841V116.411C116.245 111.826 121.813 109.206 130.656 109.206C140.645 109.206 149.16 112.972 155.055 119.85C163.407 112.481 171.431 109.206 183.221 109.206Z" fill="white"/>
<g filter="url(#filter0_d)">
<rect x="181" y="180" width="100" height="100" rx="20" fill="white"/>
</g>
<path d="M193.666 225.992C193.494 225.992 193.451 225.906 193.537 225.777L194.44 224.616C194.526 224.487 194.741 224.401 194.913 224.401H210.266C210.438 224.401 210.481 224.53 210.395 224.659L209.664 225.777C209.578 225.906 209.363 226.035 209.234 226.035L193.666 225.992Z" fill="#00ACD7"/>
<path d="M187.172 229.949C187 229.949 186.957 229.862 187.043 229.733L187.946 228.572C188.032 228.443 188.247 228.357 188.419 228.357H208.03C208.202 228.357 208.288 228.486 208.245 228.615L207.901 229.647C207.858 229.819 207.686 229.905 207.514 229.905L187.172 229.949Z" fill="#00ACD7"/>
<path d="M197.579 233.905C197.407 233.905 197.364 233.776 197.45 233.647L198.052 232.572C198.138 232.443 198.31 232.314 198.482 232.314H207.083C207.255 232.314 207.342 232.443 207.342 232.615L207.255 233.647C207.255 233.819 207.083 233.948 206.954 233.948L197.579 233.905Z" fill="#00ACD7"/>
<path d="M242.219 225.218C239.51 225.906 237.66 226.422 234.994 227.11C234.349 227.282 234.306 227.325 233.747 226.68C233.102 225.949 232.629 225.476 231.726 225.046C229.016 223.713 226.393 224.1 223.942 225.691C221.017 227.583 219.512 230.379 219.555 233.862C219.598 237.302 221.963 240.141 225.361 240.614C228.285 241.001 230.737 239.969 232.672 237.776C233.059 237.302 233.403 236.786 233.833 236.184C232.285 236.184 230.349 236.184 225.533 236.184C224.63 236.184 224.415 235.625 224.716 234.894C225.275 233.561 226.307 231.325 226.909 230.207C227.038 229.949 227.339 229.518 227.984 229.518C230.177 229.518 238.262 229.518 243.638 229.518C243.552 230.68 243.552 231.841 243.38 233.002C242.907 236.098 241.746 238.937 239.854 241.431C236.757 245.517 232.715 248.054 227.597 248.742C223.383 249.301 219.469 248.484 216.029 245.904C212.846 243.495 211.04 240.313 210.567 236.356C210.008 231.669 211.384 227.454 214.222 223.756C217.276 219.756 221.318 217.219 226.264 216.316C230.306 215.585 234.177 216.058 237.66 218.423C239.94 219.928 241.574 221.993 242.649 224.487C242.907 224.874 242.735 225.089 242.219 225.218Z" fill="#00ACD7"/>
<path d="M256.454 249C252.54 248.914 248.971 247.796 245.961 245.215C243.423 243.022 241.832 240.227 241.316 236.915C240.542 232.056 241.875 227.755 244.799 223.928C247.939 219.799 251.723 217.649 256.841 216.746C261.228 215.972 265.356 216.402 269.098 218.939C272.495 221.261 274.602 224.401 275.161 228.529C275.892 234.335 274.215 239.066 270.216 243.108C267.377 245.99 263.894 247.796 259.894 248.613C258.733 248.828 257.572 248.871 256.454 249ZM266.689 231.626C266.646 231.067 266.646 230.637 266.56 230.207C265.786 225.949 261.873 223.541 257.787 224.487C253.788 225.39 251.207 227.927 250.261 231.97C249.487 235.324 251.121 238.722 254.218 240.098C256.583 241.13 258.948 241.001 261.228 239.84C264.625 238.077 266.474 235.324 266.689 231.626Z" fill="#00ACD7"/>
<defs>
<filter id="filter0_d" x="177" y="176" width="108" height="108" filterUnits="userSpaceOnUse" color-interpolation-filters="sRGB">
<feFlood flood-opacity="0" result="BackgroundImageFix"/>
<feColorMatrix in="SourceAlpha" type="matrix" values="0 0 0 0 0 0 0 0 0 0 0 0 0 0 0 0 0 0 127 0"/>
<feOffset/>
<feGaussianBlur stdDeviation="2"/>
<feColorMatrix type="matrix" values="0 0 0 0 0 0 0 0 0 0 0 0 0 0 0 0 0 0 0.25 0"/>
<feBlend mode="normal" in2="BackgroundImageFix" result="effect1_dropShadow"/>
<feBlend mode="normal" in="SourceGraphic" in2="effect1_dropShadow" result="shape"/>
</filter>
<linearGradient id="paint0_linear" x1="102.118" y1="5.64913" x2="210.796" y2="300.117" gradientUnits="userSpaceOnUse">
<stop stop-color="#E41359"/>
<stop offset="1" stop-color="#F23C79"/>
</linearGradient>
<linearGradient id="paint1_linear" x1="108.211" y1="51.3573" x2="192.079" y2="248.938" gradientUnits="userSpaceOnUse">
<stop stop-color="#24222F"/>
<stop offset="1" stop-color="#2B2937"/>
</linearGradient>
</defs>
</svg>
