<svg width="300" height="300" viewBox="0 0 300 300" fill="none" xmlns="http://www.w3.org/2000/svg">
<path d="M223.929 57.1383L165.133 32.1811C123.262 14.408 74.9114 33.943 57.1382 75.8139L32.181 134.61C14.4079 176.48 33.9429 224.831 75.8138 242.604L134.609 267.562C176.48 285.335 224.831 265.8 242.604 223.929L267.562 165.133C285.335 123.262 265.8 74.9115 223.929 57.1383Z" fill="url(#paint0_linear)"/>
<path fill-rule="evenodd" clip-rule="evenodd" d="M92.414 57.5303L123.264 44.4354C150.152 33.0221 162.786 31.3265 176.174 32.5303C189.561 33.7341 201.759 38.6622 212.225 47.0962C222.692 55.5301 230.602 65.5262 242.016 92.4143L255.111 123.264C266.524 150.152 268.22 162.786 267.016 176.174C265.812 189.562 260.884 201.759 252.45 212.226C244.016 222.692 234.02 230.603 207.132 242.016L176.282 255.111C149.394 266.524 136.76 268.22 123.372 267.016C109.984 265.812 97.7868 260.884 87.3203 252.45C76.8538 244.016 68.9434 234.02 57.53 207.132L44.4351 176.282C33.0218 149.394 31.3262 136.76 32.53 123.372C33.7338 109.985 38.662 97.7871 47.0959 87.3206C55.5298 76.8541 65.5259 68.9437 92.414 57.5303Z" fill="url(#paint1_linear)"/>
<path fill-rule="evenodd" clip-rule="evenodd" d="M182.849 108.831C201.844 108.831 215.927 122.75 215.927 145.349V190.709H189.235V149.606C189.235 138.307 183.831 132.903 174.988 132.903C170.895 132.903 166.801 134.705 162.871 139.454C163.034 141.419 163.198 143.384 163.198 145.349V190.709H136.67V149.606C136.67 138.307 131.102 132.903 122.423 132.903C118.329 132.903 114.399 134.868 110.469 139.945V190.709H83.9404V111.288H110.469V116.036C115.873 111.451 121.44 108.831 130.283 108.831C140.272 108.831 148.788 112.598 154.683 119.475C163.034 112.106 171.058 108.831 182.849 108.831Z" fill="white"/>
<g filter="url(#filter0_d)">
<rect x="180" y="180" width="100" height="100" rx="20" fill="white"/>
<path d="M248.316 240.547L210.254 263.148L259.538 259.804L263.333 210.109L248.316 240.547Z" fill="url(#paint2_linear)"/>
<path d="M259.618 259.77L255.382 230.534L243.844 245.769L259.618 259.77Z" fill="url(#paint3_linear)"/>
<path d="M259.675 259.77L228.642 257.334L210.419 263.085L259.675 259.77Z" fill="url(#paint4_linear)"/>
<path d="M210.463 263.091L218.216 237.693L201.155 241.341L210.463 263.091Z" fill="url(#paint5_linear)"/>
<path d="M243.841 245.853L236.708 217.912L216.294 237.048L243.841 245.853Z" fill="url(#paint6_linear)"/>
<path d="M261.715 218.305L242.418 202.545L237.045 219.917L261.715 218.305Z" fill="url(#paint7_linear)"/>
<path d="M252.691 196.926L241.341 203.198L234.181 196.842L252.691 196.926Z" fill="url(#paint8_linear)"/>
<path d="M196.667 249.861L201.421 241.19L197.575 230.86L196.667 249.861Z" fill="url(#paint9_linear)"/>
<path d="M197.32 230.534L201.188 241.509L218.002 237.737L237.199 219.897L242.616 202.69L234.087 196.667L219.584 202.094C215.015 206.344 206.149 214.753 205.83 214.911C205.513 215.072 199.974 225.54 197.32 230.534Z" fill="white"/>
<path d="M210.907 210.816C220.809 200.998 233.575 195.197 238.475 200.14C243.371 205.082 238.179 217.095 228.276 226.91C218.373 236.725 205.765 242.845 200.87 237.902C195.97 232.963 201.004 220.631 210.907 210.816Z" fill="url(#paint10_linear)"/>
<path d="M210.463 263.081L218.154 237.603L243.7 245.809C234.464 254.47 224.191 261.792 210.463 263.081Z" fill="url(#paint11_linear)"/>
<path d="M237.233 219.847L243.791 245.823C251.507 237.711 258.431 228.989 261.822 218.201L237.233 219.847Z" fill="url(#paint12_linear)"/>
<path d="M261.755 218.333C264.38 210.412 264.985 199.049 252.609 196.94L242.455 202.549L261.755 218.333Z" fill="url(#paint13_linear)"/>
<path d="M196.667 249.747C197.03 262.819 206.461 263.013 210.479 263.128L201.199 241.456L196.667 249.747Z" fill="#9E1209"/>
<path d="M237.269 219.887C243.199 223.531 255.147 230.85 255.389 230.985C255.765 231.197 260.541 222.932 261.624 218.262L237.269 219.887Z" fill="url(#paint14_radial)"/>
<path d="M218.144 237.603L228.427 257.442C234.507 254.144 239.268 250.126 243.629 245.823L218.144 237.603Z" fill="url(#paint15_radial)"/>
<path d="M201.158 241.483L199.701 258.831C202.45 262.586 206.232 262.913 210.2 262.62C207.33 255.477 201.596 241.193 201.158 241.483Z" fill="url(#paint16_linear)"/>
<path d="M242.395 202.592L262.822 205.459C261.732 200.839 258.384 197.858 252.678 196.926L242.395 202.592Z" fill="url(#paint17_linear)"/>
</g>
<defs>
<filter id="filter0_d" x="176" y="176" width="108" height="108" filterUnits="userSpaceOnUse" color-interpolation-filters="sRGB">
<feFlood flood-opacity="0" result="BackgroundImageFix"/>
<feColorMatrix in="SourceAlpha" type="matrix" values="0 0 0 0 0 0 0 0 0 0 0 0 0 0 0 0 0 0 127 0"/>
<feOffset/>
<feGaussianBlur stdDeviation="2"/>
<feColorMatrix type="matrix" values="0 0 0 0 0 0 0 0 0 0 0 0 0 0 0 0 0 0 0.25 0"/>
<feBlend mode="normal" in2="BackgroundImageFix" result="effect1_dropShadow"/>
<feBlend mode="normal" in="SourceGraphic" in2="effect1_dropShadow" result="shape"/>
</filter>
<linearGradient id="paint0_linear" x1="101.746" y1="5.27474" x2="210.423" y2="299.743" gradientUnits="userSpaceOnUse">
<stop stop-color="#E41359"/>
<stop offset="1" stop-color="#F23C79"/>
</linearGradient>
<linearGradient id="paint1_linear" x1="107.839" y1="50.9829" x2="191.707" y2="248.563" gradientUnits="userSpaceOnUse">
<stop stop-color="#24222F"/>
<stop offset="1" stop-color="#2B2937"/>
</linearGradient>
<linearGradient id="paint2_linear" x1="255.239" y1="269.195" x2="241.175" y2="244.364" gradientUnits="userSpaceOnUse">
<stop stop-color="#FB7655"/>
<stop offset="0.41" stop-color="#E42B1E"/>
<stop offset="0.99" stop-color="#990000"/>
<stop offset="1" stop-color="#990000"/>
</linearGradient>
<linearGradient id="paint3_linear" x1="262.244" y1="248.336" x2="244.119" y2="236.173" gradientUnits="userSpaceOnUse">
<stop stop-color="#871101"/>
<stop offset="0.99" stop-color="#911209"/>
<stop offset="1" stop-color="#911209"/>
</linearGradient>
<linearGradient id="paint4_linear" x1="247.742" y1="269.948" x2="229.618" y2="257.785" gradientUnits="userSpaceOnUse">
<stop stop-color="#871101"/>
<stop offset="0.99" stop-color="#911209"/>
<stop offset="1" stop-color="#911209"/>
</linearGradient>
<linearGradient id="paint5_linear" x1="209.688" y1="239.53" x2="212.497" y2="257.791" gradientUnits="userSpaceOnUse">
<stop stop-color="white"/>
<stop offset="0.23" stop-color="#E57252"/>
<stop offset="0.46" stop-color="#DE3B20"/>
<stop offset="0.99" stop-color="#A60003"/>
<stop offset="1" stop-color="#A60003"/>
</linearGradient>
<linearGradient id="paint6_linear" x1="229.014" y1="222.48" x2="230.049" y2="241.117" gradientUnits="userSpaceOnUse">
<stop stop-color="white"/>
<stop offset="0.23" stop-color="#E4714E"/>
<stop offset="0.56" stop-color="#BE1A0D"/>
<stop offset="0.99" stop-color="#A80D00"/>
<stop offset="1" stop-color="#A80D00"/>
</linearGradient>
<linearGradient id="paint7_linear" x1="246.164" y1="205.254" x2="249.264" y2="218.611" gradientUnits="userSpaceOnUse">
<stop stop-color="white"/>
<stop offset="0.18" stop-color="#E46342"/>
<stop offset="0.4" stop-color="#C82410"/>
<stop offset="0.99" stop-color="#A80D00"/>
<stop offset="1" stop-color="#A80D00"/>
</linearGradient>
<linearGradient id="paint8_linear" x1="236.7" y1="200.55" x2="250.055" y2="193.873" gradientUnits="userSpaceOnUse">
<stop stop-color="white"/>
<stop offset="0.54" stop-color="#C81F11"/>
<stop offset="0.99" stop-color="#BF0905"/>
<stop offset="1" stop-color="#BF0905"/>
</linearGradient>
<linearGradient id="paint9_linear" x1="197.98" y1="234.876" x2="199.08" y2="245.881" gradientUnits="userSpaceOnUse">
<stop stop-color="white"/>
<stop offset="0.31" stop-color="#DE4024"/>
<stop offset="0.99" stop-color="#BF190B"/>
<stop offset="1" stop-color="#BF190B"/>
</linearGradient>
<linearGradient id="paint10_linear" x1="190.423" y1="248.856" x2="242.096" y2="195.721" gradientUnits="userSpaceOnUse">
<stop stop-color="#BD0012"/>
<stop offset="0.07" stop-color="white"/>
<stop offset="0.17" stop-color="white"/>
<stop offset="0.27" stop-color="#C82F1C"/>
<stop offset="0.33" stop-color="#820C01"/>
<stop offset="0.46" stop-color="#A31601"/>
<stop offset="0.72" stop-color="#B31301"/>
<stop offset="0.99" stop-color="#E82609"/>
<stop offset="1" stop-color="#E82609"/>
</linearGradient>
<linearGradient id="paint11_linear" x1="230.004" y1="254.215" x2="214.439" y2="250.374" gradientUnits="userSpaceOnUse">
<stop stop-color="#8C0C01"/>
<stop offset="0.54" stop-color="#990C00"/>
<stop offset="0.99" stop-color="#A80D0E"/>
<stop offset="1" stop-color="#A80D0E"/>
</linearGradient>
<linearGradient id="paint12_linear" x1="256.737" y1="235.535" x2="242.909" y2="223.143" gradientUnits="userSpaceOnUse">
<stop stop-color="#7E110B"/>
<stop offset="0.99" stop-color="#9E0C00"/>
<stop offset="1" stop-color="#9E0C00"/>
</linearGradient>
<linearGradient id="paint13_linear" x1="261.817" y1="212.797" x2="254.93" y2="205.433" gradientUnits="userSpaceOnUse">
<stop stop-color="#79130D"/>
<stop offset="0.99" stop-color="#9E120B"/>
<stop offset="1" stop-color="#9E120B"/>
</linearGradient>
<radialGradient id="paint14_radial" cx="0" cy="0" r="1" gradientUnits="userSpaceOnUse" gradientTransform="translate(245.063 223.38) scale(16.9446)">
<stop stop-color="#A80D00"/>
<stop offset="0.99" stop-color="#7E0E08"/>
<stop offset="1" stop-color="#7E0E08"/>
</radialGradient>
<radialGradient id="paint15_radial" cx="0" cy="0" r="1" gradientUnits="userSpaceOnUse" gradientTransform="translate(221.597 245.708) scale(22.5251)">
<stop stop-color="#A30C00"/>
<stop offset="0.99" stop-color="#800E08"/>
<stop offset="1" stop-color="#800E08"/>
</radialGradient>
<linearGradient id="paint16_linear" x1="205.641" y1="263.068" x2="200.028" y2="244.024" gradientUnits="userSpaceOnUse">
<stop stop-color="#8B2114"/>
<stop offset="0.43" stop-color="#9E100A"/>
<stop offset="0.99" stop-color="#B3100C"/>
<stop offset="1" stop-color="#B3100C"/>
</linearGradient>
<linearGradient id="paint17_linear" x1="248.7" y1="199.964" x2="261.283" y2="205.519" gradientUnits="userSpaceOnUse">
<stop stop-color="#B31000"/>
<stop offset="0.44" stop-color="#910F08"/>
<stop offset="0.99" stop-color="#791C12"/>
<stop offset="1" stop-color="#791C12"/>
</linearGradient>
</defs>
</svg>
