<svg width="300" height="300" viewBox="0 0 300 300" fill="none" xmlns="http://www.w3.org/2000/svg">
<path d="M0 236.999L55.426 96.7677C63.2367 77.0062 82.499 63.9999 103.955 63.9999H137.371L81.9447 204.232C74.1341 223.993 54.8717 236.999 33.4156 236.999H0Z" fill="url(#paint0_linear_1_2)"/>
<path d="M81.3123 237L136.738 96.7681C144.549 77.0066 163.811 64.0003 185.267 64.0003H218.683L163.257 204.232C155.446 223.994 136.184 237 114.728 237H81.3123Z" fill="url(#paint1_linear_1_2)"/>
<path d="M162.629 237L218.055 96.7681C225.866 77.0066 245.128 64.0003 266.584 64.0003H300L244.574 204.232C236.763 223.994 217.501 237 196.045 237H162.629Z" fill="url(#paint2_linear_1_2)"/>
<g filter="url(#filter0_d_1_2)">
<path d="M277.506 205.476C277.506 203.288 277.283 201.106 276.843 198.962C276.402 196.767 275.654 194.644 274.618 192.655C273.536 190.729 272.192 188.96 270.622 187.397C269.003 185.828 267.123 184.547 265.064 183.612C263.033 182.597 260.859 181.887 258.617 181.507C256.392 181.083 253.949 181.083 251.724 180.875H196.843C195.132 180.903 193.423 181.044 191.731 181.299C190.051 181.495 188.407 181.921 186.845 182.564C186.4 182.772 185.736 182.988 185.291 183.196C183.814 183.981 182.409 184.894 181.094 185.925C180.649 186.349 180.204 186.557 179.759 186.973C178.123 188.477 176.769 190.257 175.763 192.231C174.663 194.192 173.911 196.325 173.538 198.537C173.207 200.696 172.986 202.871 172.875 205.052V255.294C172.875 257.482 173.098 259.664 173.538 261.808C173.978 264.003 174.727 266.126 175.763 268.114C176.845 270.041 178.189 271.81 179.759 273.372C181.378 274.942 183.258 276.223 185.317 277.158C187.348 278.173 189.521 278.882 191.764 279.263C193.989 279.687 196.432 279.687 198.657 279.895H251.732C254.045 279.893 256.352 279.682 258.625 279.263C260.868 278.882 263.041 278.173 265.073 277.158C267.087 276.147 268.957 274.874 270.63 273.372C272.267 271.868 273.62 270.088 274.627 268.114C275.726 266.154 276.479 264.021 276.851 261.808C277.182 259.649 277.404 257.475 277.515 255.294V205.476H277.506Z" fill="#F05138"/>
<path d="M242.808 257.424C233.481 262.524 220.661 263.048 207.757 257.815C197.697 253.769 189.094 246.822 183.067 237.873C185.868 239.998 188.928 241.764 192.176 243.131C205.499 249.038 218.814 248.63 228.192 243.131C214.843 233.43 203.509 220.817 195.064 210.518C193.397 208.777 191.909 206.876 190.622 204.844C200.831 213.671 217.068 224.811 222.844 227.964C214.597 219.59 207.018 210.595 200.176 201.058C211.55 212.011 224.065 221.736 237.511 230.069C238.107 230.385 238.569 230.651 238.938 230.901C239.332 229.947 239.671 228.972 239.954 227.981C243.068 217.257 239.509 205.068 231.735 194.977C249.734 205.268 260.438 224.603 255.955 240.793C255.838 241.234 255.712 241.625 255.578 242.082L255.737 242.265C264.628 252.773 262.185 263.896 261.068 261.816C256.241 252.848 247.316 255.618 242.808 257.424Z" fill="#FEFEFE"/>
</g>
<defs>
<filter id="filter0_d_1_2" x="168.875" y="176.875" width="112.64" height="107.02" filterUnits="userSpaceOnUse" color-interpolation-filters="sRGB">
<feFlood flood-opacity="0" result="BackgroundImageFix"/>
<feColorMatrix in="SourceAlpha" type="matrix" values="0 0 0 0 0 0 0 0 0 0 0 0 0 0 0 0 0 0 127 0" result="hardAlpha"/>
<feOffset/>
<feGaussianBlur stdDeviation="2"/>
<feColorMatrix type="matrix" values="0 0 0 0 0 0 0 0 0 0 0 0 0 0 0 0 0 0 0.25 0"/>
<feBlend mode="normal" in2="BackgroundImageFix" result="effect1_dropShadow_1_2"/>
<feBlend mode="normal" in="SourceGraphic" in2="effect1_dropShadow_1_2" result="shape"/>
</filter>
<linearGradient id="paint0_linear_1_2" x1="300.001" y1="50.7857" x2="1.63474" y2="221.244" gradientUnits="userSpaceOnUse">
<stop stop-color="#FF5CAA"/>
<stop offset="1" stop-color="#FF4E62"/>
</linearGradient>
<linearGradient id="paint1_linear_1_2" x1="300.001" y1="50.7857" x2="1.63474" y2="221.244" gradientUnits="userSpaceOnUse">
<stop stop-color="#FF5CAA"/>
<stop offset="1" stop-color="#FF4E62"/>
</linearGradient>
<linearGradient id="paint2_linear_1_2" x1="300.001" y1="50.7857" x2="1.63474" y2="221.244" gradientUnits="userSpaceOnUse">
<stop stop-color="#FF5CAA"/>
<stop offset="1" stop-color="#FF4E62"/>
</linearGradient>
</defs>
</svg>
