<svg width="300" height="300" viewBox="0 0 300 300" fill="none" xmlns="http://www.w3.org/2000/svg">
<path d="M223.929 57.1383L165.133 32.1811C123.262 14.408 74.9114 33.943 57.1382 75.8139L32.181 134.61C14.4079 176.48 33.9429 224.831 75.8138 242.604L134.609 267.562C176.48 285.335 224.831 265.8 242.604 223.929L267.562 165.133C285.335 123.262 265.8 74.9115 223.929 57.1383Z" fill="url(#paint0_linear)"/>
<path fill-rule="evenodd" clip-rule="evenodd" d="M92.4143 57.5303L123.264 44.4354C150.152 33.0221 162.786 31.3265 176.174 32.5303C189.562 33.7341 201.759 38.6622 212.226 47.0962C222.692 55.5301 230.603 65.5262 242.016 92.4143L255.111 123.264C266.524 150.152 268.22 162.786 267.016 176.174C265.812 189.562 260.884 201.759 252.45 212.226C244.016 222.692 234.02 230.603 207.132 242.016L176.282 255.111C149.394 266.524 136.76 268.22 123.372 267.016C109.985 265.812 97.7871 260.884 87.3206 252.45C76.8541 244.016 68.9436 234.02 57.5303 207.132L44.4354 176.282C33.022 149.394 31.3265 136.76 32.5303 123.372C33.7341 109.985 38.6622 97.7871 47.0961 87.3206C55.53 76.8541 65.5261 68.9437 92.4143 57.5303Z" fill="url(#paint1_linear)"/>
<path fill-rule="evenodd" clip-rule="evenodd" d="M182.849 108.831C201.844 108.831 215.927 122.75 215.927 145.349V190.709H189.235V149.606C189.235 138.307 183.831 132.903 174.988 132.903C170.895 132.903 166.801 134.705 162.871 139.454C163.034 141.419 163.198 143.384 163.198 145.349V190.709H136.67V149.606C136.67 138.307 131.102 132.903 122.423 132.903C118.329 132.903 114.399 134.868 110.469 139.945V190.709H83.9404V111.288H110.469V116.036C115.873 111.451 121.44 108.831 130.283 108.831C140.272 108.831 148.788 112.598 154.683 119.475C163.034 112.106 171.058 108.831 182.849 108.831Z" fill="white"/>
<g filter="url(#filter0_d)">
<rect x="180" y="180" width="100" height="100" rx="20" fill="white"/>
</g>
<path d="M269.453 229.019L266.095 226.94C266.067 226.613 266.035 226.287 265.999 225.962L268.886 223.27C269.179 222.996 269.311 222.591 269.231 222.199C269.154 221.805 268.878 221.481 268.503 221.341L264.813 219.962C264.721 219.642 264.624 219.325 264.524 219.009L266.826 215.813C267.06 215.488 267.108 215.065 266.956 214.695C266.803 214.325 266.469 214.061 266.074 213.996L262.183 213.363C262.032 213.068 261.874 212.778 261.715 212.489L263.35 208.901C263.518 208.536 263.483 208.111 263.26 207.779C263.038 207.446 262.661 207.251 262.259 207.266L258.31 207.404C258.106 207.148 257.898 206.895 257.686 206.647L258.594 202.801C258.685 202.41 258.57 202.001 258.286 201.717C258.004 201.435 257.594 201.318 257.203 201.409L253.358 202.316C253.109 202.105 252.856 201.896 252.6 201.692L252.738 197.744C252.753 197.344 252.558 196.964 252.225 196.742C251.891 196.519 251.468 196.486 251.104 196.651L247.516 198.287C247.226 198.128 246.936 197.971 246.642 197.819L246.008 193.927C245.944 193.533 245.679 193.198 245.309 193.045C244.94 192.892 244.517 192.941 244.192 193.175L240.993 195.477C240.678 195.376 240.362 195.28 240.042 195.188L238.662 191.498C238.523 191.122 238.198 190.846 237.805 190.768C237.412 190.691 237.008 190.822 236.735 191.114L234.043 194.002C233.718 193.966 233.391 193.933 233.064 193.907L230.985 190.547C230.775 190.207 230.403 190 230.002 190C229.602 190 229.23 190.207 229.02 190.547L226.941 193.907C226.614 193.933 226.287 193.966 225.962 194.002L223.269 191.114C222.996 190.822 222.591 190.691 222.199 190.768C221.805 190.847 221.481 191.122 221.341 191.498L219.962 195.188C219.642 195.28 219.326 195.377 219.01 195.477L215.812 193.175C215.487 192.94 215.064 192.891 214.694 193.045C214.325 193.198 214.059 193.533 213.995 193.927L213.361 197.819C213.067 197.971 212.777 198.127 212.487 198.287L208.899 196.651C208.535 196.485 208.11 196.519 207.778 196.742C207.445 196.964 207.25 197.344 207.265 197.744L207.403 201.692C207.147 201.896 206.894 202.105 206.645 202.316L202.799 201.409C202.408 201.319 201.999 201.435 201.716 201.717C201.432 202.001 201.316 202.41 201.408 202.801L202.314 206.647C202.103 206.896 201.896 207.148 201.692 207.404L197.743 207.266C197.345 207.254 196.964 207.446 196.742 207.779C196.518 208.111 196.485 208.536 196.651 208.901L198.286 212.489C198.127 212.778 197.97 213.068 197.818 213.363L193.927 213.996C193.532 214.06 193.199 214.325 193.045 214.695C192.892 215.065 192.942 215.488 193.175 215.813L195.477 219.009C195.376 219.325 195.279 219.642 195.188 219.962L191.497 221.341C191.123 221.481 190.847 221.805 190.769 222.199C190.691 222.592 190.822 222.996 191.114 223.27L194.001 225.962C193.965 226.287 193.933 226.614 193.906 226.94L190.547 229.019C190.207 229.23 190 229.601 190 230.002C190 230.404 190.207 230.775 190.547 230.984L193.906 233.064C193.933 233.391 193.965 233.717 194.001 234.042L191.114 236.735C190.822 237.008 190.691 237.413 190.769 237.805C190.847 238.198 191.123 238.522 191.497 238.662L195.188 240.042C195.279 240.362 195.376 240.679 195.477 240.994L193.175 244.192C192.941 244.517 192.892 244.94 193.045 245.309C193.199 245.68 193.533 245.944 193.928 246.008L197.818 246.641C197.97 246.936 198.126 247.226 198.286 247.516L196.651 251.103C196.484 251.468 196.518 251.892 196.742 252.225C196.965 252.559 197.345 252.754 197.743 252.738L201.69 252.6C201.896 252.856 202.103 253.108 202.314 253.358L201.408 257.205C201.316 257.595 201.432 258.002 201.716 258.286C201.998 258.571 202.408 258.685 202.799 258.593L206.645 257.687C206.894 257.9 207.147 258.106 207.403 258.309L207.265 262.259C207.25 262.658 207.445 263.038 207.778 263.261C208.11 263.483 208.535 263.517 208.899 263.35L212.487 261.715C212.776 261.876 213.067 262.032 213.361 262.184L213.995 266.073C214.059 266.469 214.324 266.803 214.694 266.956C215.063 267.109 215.487 267.06 215.812 266.826L219.009 264.523C219.324 264.624 219.642 264.721 219.961 264.813L221.341 268.502C221.481 268.876 221.805 269.154 222.198 269.23C222.591 269.31 222.995 269.178 223.268 268.885L225.961 265.998C226.286 266.035 226.613 266.067 226.94 266.096L229.019 269.454C229.229 269.793 229.601 270.002 230.002 270.002C230.402 270.002 230.774 269.794 230.984 269.454L233.064 266.096C233.391 266.067 233.717 266.035 234.042 265.998L236.734 268.885C237.007 269.178 237.412 269.31 237.804 269.23C238.198 269.153 238.522 268.876 238.662 268.502L240.041 264.813C240.361 264.721 240.678 264.624 240.994 264.523L244.191 266.826C244.516 267.06 244.939 267.109 245.308 266.956C245.678 266.803 245.943 266.468 246.007 266.073L246.641 262.184C246.935 262.032 247.225 261.873 247.515 261.715L251.103 263.35C251.468 263.517 251.892 263.483 252.224 263.261C252.558 263.038 252.752 262.659 252.737 262.259L252.6 258.309C252.855 258.105 253.108 257.9 253.357 257.687L257.202 258.593C257.593 258.685 258.003 258.571 258.285 258.286C258.569 258.002 258.685 257.595 258.593 257.205L257.687 253.358C257.898 253.108 258.106 252.856 258.309 252.6L262.258 252.738C262.656 252.754 263.037 252.559 263.259 252.225C263.482 251.892 263.517 251.468 263.349 251.103L261.714 247.516C261.874 247.226 262.031 246.936 262.182 246.641L266.073 246.008C266.469 245.944 266.802 245.68 266.955 245.309C267.108 244.94 267.06 244.517 266.825 244.192L264.523 240.994C264.623 240.679 264.72 240.362 264.812 240.042L268.502 238.662C268.877 238.522 269.154 238.198 269.23 237.805C269.31 237.412 269.178 237.008 268.885 236.735L265.999 234.042C266.034 233.717 266.066 233.39 266.094 233.064L269.453 230.984C269.793 230.775 270 230.403 270 230.002C270 229.602 269.794 229.23 269.453 229.019ZM246.975 256.881C245.692 256.604 244.877 255.34 245.152 254.053C245.426 252.768 246.69 251.951 247.971 252.227C249.254 252.502 250.071 253.768 249.796 255.052C249.521 256.336 248.257 257.155 246.975 256.881ZM245.834 249.162C244.663 248.912 243.512 249.656 243.261 250.829L242.069 256.393C238.39 258.063 234.303 258.991 230 258.991C225.598 258.991 221.423 258.017 217.678 256.276L216.486 250.712C216.236 249.541 215.084 248.795 213.915 249.046L209.003 250.101C208.091 249.162 207.242 248.162 206.463 247.107H230.365C230.636 247.107 230.816 247.058 230.816 246.812V238.357C230.816 238.111 230.636 238.062 230.365 238.062H223.375V232.702H230.936C231.626 232.702 234.626 232.899 235.585 236.734C235.885 237.913 236.545 241.75 236.996 242.978C237.446 244.355 239.275 247.107 241.225 247.107H253.136C253.271 247.107 253.416 247.092 253.568 247.064C252.742 248.187 251.835 249.249 250.859 250.242L245.834 249.162ZM212.774 256.765C211.491 257.041 210.229 256.223 209.953 254.938C209.678 253.651 210.494 252.388 211.776 252.111C213.059 251.837 214.322 252.655 214.598 253.939C214.872 255.224 214.056 256.489 212.774 256.765ZM203.706 219.995C204.238 221.196 203.697 222.603 202.498 223.135C201.299 223.667 199.895 223.125 199.363 221.924C198.831 220.722 199.372 219.317 200.572 218.785C201.772 218.253 203.174 218.794 203.706 219.995ZM200.92 226.602L206.037 224.328C207.13 223.842 207.624 222.561 207.138 221.466L206.084 219.083H210.229V237.767H201.867C201.141 235.217 200.752 232.525 200.752 229.744C200.752 228.682 200.809 227.633 200.92 226.602ZM223.376 224.787V219.28H233.247C233.757 219.28 236.847 219.869 236.847 222.18C236.847 224.098 234.477 224.786 232.528 224.786H223.376V224.787ZM259.249 229.744C259.249 230.475 259.222 231.198 259.168 231.915H256.168C255.867 231.915 255.746 232.113 255.746 232.407V233.785C255.746 237.029 253.917 237.734 252.314 237.914C250.788 238.086 249.096 237.275 248.887 236.341C247.987 231.276 246.486 230.195 244.117 228.326C247.057 226.459 250.117 223.704 250.117 220.017C250.117 216.035 247.387 213.527 245.527 212.298C242.917 210.577 240.027 210.232 239.247 210.232H208.212C212.421 205.535 218.124 202.208 224.575 200.997L228.234 204.835C229.061 205.701 230.43 205.733 231.296 204.906L235.389 200.991C243.965 202.587 251.227 207.926 255.412 215.251L252.609 221.58C252.126 222.675 252.619 223.956 253.712 224.442L259.106 226.838C259.2 227.796 259.249 228.763 259.249 229.744ZM228.235 197.733C229.183 196.825 230.686 196.861 231.594 197.81C232.499 198.762 232.465 200.267 231.515 201.174C230.567 202.082 229.064 202.047 228.156 201.096C227.251 200.146 227.286 198.641 228.235 197.733ZM256.042 220.111C256.573 218.91 257.977 218.368 259.176 218.901C260.375 219.433 260.916 220.839 260.384 222.04C259.853 223.242 258.45 223.784 257.25 223.251C256.052 222.719 255.511 221.313 256.042 220.111Z" fill="black"/>
<defs>
<filter id="filter0_d" x="176" y="176" width="108" height="108" filterUnits="userSpaceOnUse" color-interpolation-filters="sRGB">
<feFlood flood-opacity="0" result="BackgroundImageFix"/>
<feColorMatrix in="SourceAlpha" type="matrix" values="0 0 0 0 0 0 0 0 0 0 0 0 0 0 0 0 0 0 127 0"/>
<feOffset/>
<feGaussianBlur stdDeviation="2"/>
<feColorMatrix type="matrix" values="0 0 0 0 0 0 0 0 0 0 0 0 0 0 0 0 0 0 0.25 0"/>
<feBlend mode="normal" in2="BackgroundImageFix" result="effect1_dropShadow"/>
<feBlend mode="normal" in="SourceGraphic" in2="effect1_dropShadow" result="shape"/>
</filter>
<linearGradient id="paint0_linear" x1="101.746" y1="5.27474" x2="210.423" y2="299.743" gradientUnits="userSpaceOnUse">
<stop stop-color="#E41359"/>
<stop offset="1" stop-color="#F23C79"/>
</linearGradient>
<linearGradient id="paint1_linear" x1="107.839" y1="50.9829" x2="191.707" y2="248.563" gradientUnits="userSpaceOnUse">
<stop stop-color="#24222F"/>
<stop offset="1" stop-color="#2B2937"/>
</linearGradient>
</defs>
</svg>
