<svg width="300" height="300" viewBox="0 0 300 300" fill="none" xmlns="http://www.w3.org/2000/svg">
<path d="M223.929 57.1383L165.133 32.1811C123.262 14.408 74.9115 33.943 57.1383 75.8139L32.1811 134.61C14.408 176.48 33.943 224.831 75.8139 242.604L134.609 267.562C176.48 285.335 224.831 265.8 242.604 223.929L267.562 165.133C285.335 123.262 265.8 74.9115 223.929 57.1383Z" fill="url(#paint0_linear)"/>
<path fill-rule="evenodd" clip-rule="evenodd" d="M92.4141 57.5303L123.264 44.4354C150.152 33.0221 162.786 31.3265 176.174 32.5303C189.561 33.7341 201.759 38.6622 212.226 47.0962C222.692 55.5301 230.602 65.5262 242.016 92.4143L255.111 123.264C266.524 150.152 268.22 162.786 267.016 176.174C265.812 189.562 260.884 201.759 252.45 212.226C244.016 222.692 234.02 230.603 207.132 242.016L176.282 255.111C149.394 266.524 136.76 268.22 123.372 267.016C109.984 265.812 97.7869 260.884 87.3204 252.45C76.8539 244.016 68.9434 234.02 57.5301 207.132L44.4352 176.282C33.0219 149.394 31.3263 136.76 32.5301 123.372C33.7339 109.985 38.662 97.7871 47.0959 87.3206C55.5298 76.8541 65.526 68.9437 92.4141 57.5303Z" fill="url(#paint1_linear)"/>
<path fill-rule="evenodd" clip-rule="evenodd" d="M182.849 108.831C201.844 108.831 215.927 122.75 215.927 145.349V190.709H189.235V149.606C189.235 138.307 183.831 132.903 174.988 132.903C170.894 132.903 166.801 134.705 162.87 139.454C163.034 141.419 163.198 143.384 163.198 145.349V190.709H136.67V149.606C136.67 138.307 131.102 132.903 122.423 132.903C118.329 132.903 114.399 134.868 110.469 139.945V190.709H83.9403V111.288H110.469V116.036C115.873 111.451 121.44 108.831 130.283 108.831C140.272 108.831 148.787 112.598 154.683 119.475C163.034 112.106 171.058 108.831 182.849 108.831Z" fill="white"/>
<g filter="url(#filter0_d)">
<rect x="180" y="180" width="100" height="100" rx="20" fill="white"/>
</g>
<path fill-rule="evenodd" clip-rule="evenodd" d="M237.959 248.322V224.322C237.958 223.911 237.795 223.518 237.505 223.227C237.215 222.937 236.821 222.774 236.411 222.774H212.438V198H261.158C261.361 198 261.562 198.04 261.75 198.118C261.938 198.195 262.108 198.309 262.252 198.453C262.396 198.597 262.51 198.768 262.588 198.955C262.666 199.143 262.706 199.344 262.706 199.548V248.322H237.959Z" fill="#8E75FF"/>
<path opacity="0.405" fill-rule="evenodd" clip-rule="evenodd" d="M212.438 198V222.774H189.558C189.405 222.774 189.255 222.729 189.128 222.644C189.001 222.559 188.902 222.438 188.843 222.297C188.785 222.155 188.769 222 188.799 221.85C188.829 221.699 188.902 221.562 189.01 221.453L212.438 198ZM237.959 271.227V248.322H262.706L239.28 271.773C239.172 271.882 239.034 271.955 238.884 271.985C238.733 272.015 238.578 272 238.437 271.941C238.295 271.883 238.174 271.783 238.089 271.656C238.004 271.529 237.959 271.38 237.959 271.227V271.227ZM212.438 222.774H237.185C237.39 222.774 237.587 222.856 237.732 223.001C237.877 223.146 237.958 223.343 237.959 223.548V248.322H213.986C213.783 248.322 213.581 248.282 213.394 248.204C213.206 248.127 213.035 248.013 212.891 247.869C212.748 247.725 212.634 247.555 212.556 247.367C212.478 247.179 212.438 246.978 212.438 246.775V222.774Z" fill="#8E75FF"/>
<defs>
<filter id="filter0_d" x="176" y="176" width="108" height="108" filterUnits="userSpaceOnUse" color-interpolation-filters="sRGB">
<feFlood flood-opacity="0" result="BackgroundImageFix"/>
<feColorMatrix in="SourceAlpha" type="matrix" values="0 0 0 0 0 0 0 0 0 0 0 0 0 0 0 0 0 0 127 0"/>
<feOffset/>
<feGaussianBlur stdDeviation="2"/>
<feColorMatrix type="matrix" values="0 0 0 0 0 0 0 0 0 0 0 0 0 0 0 0 0 0 0.25 0"/>
<feBlend mode="normal" in2="BackgroundImageFix" result="effect1_dropShadow"/>
<feBlend mode="normal" in="SourceGraphic" in2="effect1_dropShadow" result="shape"/>
</filter>
<linearGradient id="paint0_linear" x1="101.746" y1="5.27474" x2="210.423" y2="299.743" gradientUnits="userSpaceOnUse">
<stop stop-color="#E41359"/>
<stop offset="1" stop-color="#F23C79"/>
</linearGradient>
<linearGradient id="paint1_linear" x1="107.839" y1="50.9829" x2="191.707" y2="248.563" gradientUnits="userSpaceOnUse">
<stop stop-color="#24222F"/>
<stop offset="1" stop-color="#2B2937"/>
</linearGradient>
</defs>
</svg>
