<svg width="300" height="300" viewBox="0 0 300 300" fill="none" xmlns="http://www.w3.org/2000/svg">
<path d="M0 236.999L55.426 96.7677C63.2367 77.0062 82.499 63.9999 103.955 63.9999H137.371L81.9447 204.232C74.1341 223.993 54.8717 236.999 33.4156 236.999H0Z" fill="url(#paint0_linear_1_35)"/>
<path d="M81.3123 237L136.738 96.7681C144.549 77.0066 163.811 64.0003 185.267 64.0003H218.683L163.257 204.232C155.446 223.994 136.184 237 114.728 237H81.3123Z" fill="url(#paint1_linear_1_35)"/>
<path d="M162.629 237L218.055 96.7681C225.866 77.0066 245.128 64.0003 266.584 64.0003H300L244.574 204.232C236.763 223.994 217.501 237 196.045 237H162.629Z" fill="url(#paint2_linear_1_35)"/>
<g filter="url(#filter0_d_1_35)">
<rect x="180" y="180" width="100" height="100" rx="20" fill="white"/>
</g>
<g clip-path="url(#clip0_1_35)">
<path d="M230.5 271C253.42 271 272 252.42 272 229.5C272 206.58 253.42 188 230.5 188C207.58 188 189 206.58 189 229.5C189 252.42 207.58 271 230.5 271Z" fill="#1A171B"/>
<path d="M248.642 203.355C244.424 203.502 240.746 205.824 238.009 209.042C234.978 212.567 232.959 216.745 231.503 221.01C228.903 218.879 226.897 216.12 222.754 214.917C221.109 214.41 219.366 214.307 217.673 214.617C215.979 214.926 214.386 215.639 213.026 216.695C211.551 217.798 210.533 219.463 210.051 221.029C208.802 225.1 211.364 228.722 212.533 230.022L215.082 232.753C215.607 233.284 216.873 234.69 216.254 236.69C215.585 238.868 212.957 240.284 210.264 239.449C209.061 239.084 207.333 238.187 207.72 236.925C207.877 236.409 208.252 236.018 208.448 235.575C208.63 235.19 208.717 234.903 208.773 234.731C209.267 233.125 208.592 231.034 206.874 230.503C205.267 230.009 203.624 230.4 202.986 232.472C202.268 234.822 203.386 239.084 209.408 240.909C216.463 243.077 222.429 239.234 223.275 234.222C223.807 231.084 222.391 228.753 219.798 225.785L217.682 223.447C216.432 222.198 215.964 219.985 217.288 218.31C218.407 216.895 220.001 216.292 222.61 216.998C226.422 218.029 228.116 220.676 230.953 222.81C229.784 226.647 229.016 230.497 228.328 233.953L227.906 236.528C225.882 247.152 224.335 252.986 220.313 256.333C219.501 256.908 218.345 257.77 216.601 257.832C215.685 257.864 215.392 257.232 215.382 256.958C215.36 256.317 215.901 256.02 216.257 255.733C216.795 255.439 217.607 254.951 217.551 253.398C217.488 251.561 215.97 249.961 213.77 250.039C212.12 250.096 209.608 251.649 209.701 254.489C209.801 257.426 212.536 259.623 216.66 259.482C218.863 259.407 223.785 258.514 228.638 252.742C234.284 246.13 235.862 238.556 237.053 233.006L238.378 225.682L240.759 225.85C247.789 225.997 251.308 222.357 251.361 219.707C251.392 218.104 250.308 216.526 248.786 216.56C247.692 216.592 246.327 217.317 245.999 218.823C245.677 220.301 248.236 221.635 246.236 222.929C244.815 223.847 242.268 224.497 238.681 223.969L239.337 220.363C240.668 213.526 242.305 205.114 248.539 204.914C248.992 204.893 250.655 204.936 250.695 206.033C250.708 206.399 250.617 206.492 250.186 207.333C249.749 207.958 249.583 208.545 249.605 209.186C249.667 210.936 250.992 212.08 252.911 212.011C255.483 211.926 256.223 209.427 256.179 208.136C256.076 205.118 252.892 203.208 248.68 203.349L248.642 203.355Z" fill="white"/>
</g>
<defs>
<filter id="filter0_d_1_35" x="176" y="176" width="108" height="108" filterUnits="userSpaceOnUse" color-interpolation-filters="sRGB">
<feFlood flood-opacity="0" result="BackgroundImageFix"/>
<feColorMatrix in="SourceAlpha" type="matrix" values="0 0 0 0 0 0 0 0 0 0 0 0 0 0 0 0 0 0 127 0" result="hardAlpha"/>
<feOffset/>
<feGaussianBlur stdDeviation="2"/>
<feColorMatrix type="matrix" values="0 0 0 0 0 0 0 0 0 0 0 0 0 0 0 0 0 0 0.25 0"/>
<feBlend mode="normal" in2="BackgroundImageFix" result="effect1_dropShadow_1_35"/>
<feBlend mode="normal" in="SourceGraphic" in2="effect1_dropShadow_1_35" result="shape"/>
</filter>
<linearGradient id="paint0_linear_1_35" x1="300.001" y1="50.7857" x2="1.63474" y2="221.244" gradientUnits="userSpaceOnUse">
<stop stop-color="#FF5CAA"/>
<stop offset="1" stop-color="#FF4E62"/>
</linearGradient>
<linearGradient id="paint1_linear_1_35" x1="300.001" y1="50.7857" x2="1.63474" y2="221.244" gradientUnits="userSpaceOnUse">
<stop stop-color="#FF5CAA"/>
<stop offset="1" stop-color="#FF4E62"/>
</linearGradient>
<linearGradient id="paint2_linear_1_35" x1="300.001" y1="50.7857" x2="1.63474" y2="221.244" gradientUnits="userSpaceOnUse">
<stop stop-color="#FF5CAA"/>
<stop offset="1" stop-color="#FF4E62"/>
</linearGradient>
<clipPath id="clip0_1_35">
<rect width="83" height="83" fill="white" transform="translate(189 188)"/>
</clipPath>
</defs>
</svg>
