<svg width="300" height="300" viewBox="0 0 300 300" fill="none" xmlns="http://www.w3.org/2000/svg">
<path d="M0 236.999L55.426 96.7677C63.2367 77.0062 82.499 63.9999 103.955 63.9999H137.371L81.9447 204.232C74.1341 223.993 54.8717 236.999 33.4156 236.999H0Z" fill="url(#paint0_linear_1_318)"/>
<path d="M81.3123 237L136.738 96.7681C144.549 77.0066 163.811 64.0003 185.267 64.0003H218.683L163.257 204.232C155.446 223.994 136.184 237 114.728 237H81.3123Z" fill="url(#paint1_linear_1_318)"/>
<path d="M162.629 237L218.055 96.7681C225.866 77.0066 245.128 64.0003 266.584 64.0003H300L244.574 204.232C236.763 223.994 217.501 237 196.045 237H162.629Z" fill="url(#paint2_linear_1_318)"/>
<g filter="url(#filter0_d_1_318)">
<rect x="180" y="180" width="100" height="100" rx="20" fill="white"/>
</g>
<path d="M219.619 252C219.619 252 216.598 253.758 221.771 254.351C228.039 255.067 231.242 254.964 238.148 253.659C238.148 253.659 239.967 254.796 242.503 255.782C227.017 262.416 207.458 255.397 219.619 252ZM217.726 243.341C217.726 243.341 214.337 245.85 219.514 246.386C226.21 247.077 231.496 247.134 240.649 245.372C240.649 245.372 241.911 246.655 243.9 247.356C225.182 252.831 204.333 247.787 217.726 243.341V243.341Z" fill="#0074BD"/>
<path d="M233.677 228.651C237.494 233.045 232.676 236.996 232.676 236.996C232.676 236.996 242.363 231.996 237.915 225.732C233.759 219.893 230.573 216.993 247.822 206.989C247.822 206.99 220.746 213.75 233.677 228.651V228.651Z" fill="#EA2D2E"/>
<path d="M254.156 258.405C254.156 258.405 256.392 260.249 251.692 261.674C242.757 264.381 214.494 265.197 206.644 261.782C203.824 260.554 209.115 258.852 210.78 258.493C212.515 258.117 213.506 258.185 213.506 258.185C210.368 255.976 193.222 262.526 204.798 264.404C236.366 269.522 262.343 262.1 254.156 258.405V258.405ZM221.073 234.368C221.073 234.368 206.698 237.783 215.983 239.024C219.904 239.549 227.717 239.429 234.999 238.818C240.949 238.318 246.919 237.25 246.919 237.25C246.919 237.25 244.823 238.149 243.305 239.185C228.705 243.025 200.507 241.236 208.626 237.31C215.489 233.991 221.073 234.368 221.073 234.368V234.368ZM246.86 248.782C261.7 241.072 254.838 233.663 250.048 234.661C248.877 234.905 248.352 235.117 248.352 235.117C248.352 235.117 248.788 234.434 249.619 234.14C259.094 230.81 266.38 243.963 246.563 249.173C246.563 249.171 246.791 248.965 246.86 248.782V248.782Z" fill="#0074BD"/>
<path d="M237.915 190.833C237.915 190.833 246.132 199.055 230.119 211.694C217.278 221.836 227.191 227.618 230.115 234.226C222.618 227.463 217.12 221.509 220.808 215.968C226.224 207.836 241.229 203.891 237.915 190.833V190.833Z" fill="#EA2D2E"/>
<path d="M222.532 269.679C236.773 270.589 258.649 269.172 259.167 262.433C259.167 262.433 258.171 264.987 247.396 267.014C235.239 269.303 220.242 269.036 211.35 267.568C211.35 267.569 213.172 269.077 222.532 269.679V269.679Z" fill="#0074BD"/>
<defs>
<filter id="filter0_d_1_318" x="176" y="176" width="108" height="108" filterUnits="userSpaceOnUse" color-interpolation-filters="sRGB">
<feFlood flood-opacity="0" result="BackgroundImageFix"/>
<feColorMatrix in="SourceAlpha" type="matrix" values="0 0 0 0 0 0 0 0 0 0 0 0 0 0 0 0 0 0 127 0" result="hardAlpha"/>
<feOffset/>
<feGaussianBlur stdDeviation="2"/>
<feColorMatrix type="matrix" values="0 0 0 0 0 0 0 0 0 0 0 0 0 0 0 0 0 0 0.25 0"/>
<feBlend mode="normal" in2="BackgroundImageFix" result="effect1_dropShadow_1_318"/>
<feBlend mode="normal" in="SourceGraphic" in2="effect1_dropShadow_1_318" result="shape"/>
</filter>
<linearGradient id="paint0_linear_1_318" x1="300.001" y1="50.7857" x2="1.63474" y2="221.244" gradientUnits="userSpaceOnUse">
<stop stop-color="#FF5CAA"/>
<stop offset="1" stop-color="#FF4E62"/>
</linearGradient>
<linearGradient id="paint1_linear_1_318" x1="300.001" y1="50.7857" x2="1.63474" y2="221.244" gradientUnits="userSpaceOnUse">
<stop stop-color="#FF5CAA"/>
<stop offset="1" stop-color="#FF4E62"/>
</linearGradient>
<linearGradient id="paint2_linear_1_318" x1="300.001" y1="50.7857" x2="1.63474" y2="221.244" gradientUnits="userSpaceOnUse">
<stop stop-color="#FF5CAA"/>
<stop offset="1" stop-color="#FF4E62"/>
</linearGradient>
</defs>
</svg>
