<svg width="300" height="300" viewBox="0 0 300 300" fill="none" xmlns="http://www.w3.org/2000/svg">
<path d="M0 236.999L55.426 96.7677C63.2367 77.0062 82.499 63.9999 103.955 63.9999H137.371L81.9447 204.232C74.1341 223.993 54.8717 236.999 33.4156 236.999H0Z" fill="url(#paint0_linear_1_786)"/>
<path d="M81.3123 237L136.738 96.7681C144.549 77.0066 163.811 64.0003 185.267 64.0003H218.683L163.257 204.232C155.446 223.994 136.184 237 114.728 237H81.3123Z" fill="url(#paint1_linear_1_786)"/>
<path d="M162.629 237L218.055 96.7681C225.866 77.0066 245.128 64.0003 266.584 64.0003H300L244.574 204.232C236.763 223.994 217.501 237 196.045 237H162.629Z" fill="url(#paint2_linear_1_786)"/>
<g filter="url(#filter0_d_1_786)">
<rect x="173.502" y="174.456" width="107" height="105.045" rx="19" fill="white"/>
</g>
<path fill-rule="evenodd" clip-rule="evenodd" d="M186.927 174.219C185.977 174.293 185.044 174.282 184.125 174.533C182.114 175.083 180.327 175.963 178.751 177.32C177.824 178.116 177.015 178.975 176.329 179.987C175.269 181.549 174.547 183.228 174.184 185.118C174.329 185.371 174.482 185.637 174.644 185.906C175.671 187.619 176.698 189.32 177.728 191.031L180.434 195.519C181.267 196.902 182.097 198.287 182.928 199.67L186.81 206.13C187.693 207.599 188.575 209.069 189.458 210.537C190.745 212.676 192.035 214.813 193.32 216.953L198.045 224.828C199.408 227.096 200.773 229.362 202.138 231.629L202.319 231.892C202.517 231.955 202.675 231.902 202.838 231.863C204.636 231.433 206.434 231.005 208.232 230.576C211.148 229.881 214.064 229.189 216.98 228.493L221.547 227.403C224.495 226.701 227.444 226 230.392 225.296C233.372 224.585 236.351 223.87 239.332 223.159C240.839 222.798 242.345 222.439 243.852 222.08C246.768 221.386 249.684 220.694 252.6 220.001L262.127 217.738L262.642 217.6L262.502 217.321L259.902 213.656L257.334 210.03L254.587 206.161L251.962 202.452L249.36 198.787L246.674 195C245.797 193.765 244.918 192.531 244.04 191.296L242.653 189.342C242.44 189.042 242.271 188.718 242.158 188.368C241.883 187.518 242.197 186.953 242.694 186.535C243.016 186.264 243.386 186.064 243.787 185.947C244.346 185.783 244.91 185.626 245.481 185.518C246.626 185.302 247.778 185.119 248.928 184.928L252.824 184.295C253.645 184.159 254.466 184.017 255.287 183.879C256.403 183.69 257.52 183.501 258.637 183.316C259.721 183.134 260.806 182.954 261.89 182.776L265.439 182.197L267.903 181.784C268.84 181.628 269.776 181.473 270.712 181.32C271.88 181.13 273.047 180.938 274.214 180.756C274.91 180.647 275.606 180.61 276.297 180.808C276.815 180.957 277.287 181.199 277.726 181.508L278.333 181.931C278.394 181.791 278.306 181.715 278.266 181.636C277.39 179.867 276.195 178.346 274.677 177.079C273.266 175.901 271.681 175.035 269.928 174.483C268.893 174.156 267.829 174.308 266.745 174.226L186.927 174.219ZM219.579 279.5C219.526 279.5 219.48 279.122 219.421 279.022C218.157 276.871 216.88 274.562 215.631 272.403C214.058 269.682 212.5 266.952 210.949 264.218C209.294 261.295 207.653 258.364 206.01 255.434C204.448 252.649 202.891 249.862 201.335 247.074C200.395 245.389 199.462 243.701 198.523 242.015L198.274 241.63L197.817 241.72C196.914 241.952 196.012 242.187 195.111 242.424C193.856 242.753 192.601 243.089 191.345 243.415C188.525 244.147 185.705 244.875 182.885 245.605C180.017 246.347 177.029 247.092 174.16 247.832C173.986 247.876 174.344 247.891 173.502 247.921V265.69C173.849 266.241 173.816 265.982 173.838 266.163C173.905 266.689 174.013 267.219 174.105 267.74C174.452 269.682 175.233 271.459 176.362 273.078C178.018 275.452 180.223 277.15 182.924 278.189C183.889 278.558 184.895 278.819 185.925 278.945L186.97 279.221" fill="#FD4F31"/>
<path fill-rule="evenodd" clip-rule="evenodd" d="M176.852 238.106C180.17 237.319 183.49 236.532 186.809 235.746C188.266 235.402 189.725 235.061 191.182 234.715C191.911 234.542 192.641 234.377 193.364 234.182C194.008 234.009 194.087 233.797 193.756 233.218C193.278 232.381 192.791 231.549 192.306 230.714L188.04 223.386L183.775 216.058C182.328 213.572 180.88 211.086 179.432 208.601C178.193 206.475 176.954 204.349 175.715 202.223C175.179 201.303 174.529 200.382 173.991 199.463C173.89 199.296 174.344 199.096 173.502 199.007V238.836C173.502 238.809 173.884 238.787 174.013 238.756L176.852 238.106V238.106ZM279.006 266.576C277.705 267.037 276.403 267.502 275.103 267.967C272.142 269.025 269.18 270.084 266.219 271.144C264.573 271.733 262.931 272.329 261.285 272.915C257.93 274.11 254.573 275.3 251.218 276.491C249.273 277.182 247.328 278.036 245.384 278.73C244.852 278.921 244.327 279.5 243.799 279.5H266.118L266.598 279.226C267.166 279.201 267.724 279.033 268.282 278.932C270.573 278.514 272.624 277.526 274.442 276.081C275.838 274.971 276.973 273.614 277.863 272.066C278.778 270.472 279.322 268.749 279.583 266.939C279.606 266.782 279.654 266.605 279.523 266.444C279.338 266.43 279.174 266.516 279.006 266.576V266.576ZM277.089 236.683C276.105 235.34 275.118 234 274.136 232.656C272.78 230.802 271.427 228.945 270.073 227.09C269.523 226.337 268.965 225.59 268.429 224.828C268.267 224.599 268.082 224.538 267.83 224.606L267.686 224.647C265.194 225.251 262.701 225.854 260.208 226.456L255.741 227.538C252.829 228.243 249.915 228.949 247.003 229.655C244.122 230.353 241.241 231.052 238.36 231.749L229.377 233.919C226.431 234.632 223.486 235.348 220.541 236.062L211.996 238.131C210.49 238.496 208.985 238.859 207.481 239.225C207.259 239.279 207.021 239.293 206.785 239.471L206.986 239.853C208.247 242.026 209.509 244.199 210.773 246.37C212.205 248.829 213.637 251.287 215.073 253.743C216.652 256.444 218.235 259.142 219.816 261.841C220.725 263.392 221.628 264.944 222.545 266.49C223.564 268.208 224.586 269.922 225.623 271.629C225.934 272.139 226.287 272.626 226.642 273.107C226.881 273.428 227.176 273.702 227.523 273.911C227.882 274.127 228.269 274.195 228.677 274.104C228.888 274.056 229.094 273.987 229.298 273.916L230.048 273.639C232.775 272.709 235.501 271.778 238.229 270.851C240.358 270.129 242.488 269.409 244.618 268.691C246.732 267.976 248.848 267.264 250.962 266.552L257.259 264.431C259.406 263.708 261.552 262.984 263.698 262.259C266.332 261.367 268.964 260.472 271.6 259.582C274.14 258.725 276.683 257.873 279.224 257.018C279.38 256.965 279.552 256.944 279.681 256.773L279.697 256.404C279.697 251.148 279.696 245.89 279.702 240.634C279.702 240.353 279.627 240.126 279.458 239.9C278.659 238.834 277.877 237.756 277.089 236.683V236.683ZM276.652 187.154C276.06 186.407 275.307 186.17 274.384 186.411C273.982 186.516 273.569 186.582 273.159 186.657C271.816 186.902 270.472 187.143 269.129 187.386C267.162 187.743 265.197 188.102 263.23 188.455C261.673 188.734 260.116 189.009 258.558 189.281L252.308 190.372C252.046 190.417 251.781 190.463 251.529 190.543C251.16 190.661 251.054 190.891 251.223 191.237C251.36 191.519 251.531 191.789 251.716 192.043C253.009 193.819 254.307 195.591 255.606 197.365C257.395 199.809 259.185 202.253 260.976 204.696C262.491 206.763 264.007 208.83 265.523 210.897C266.714 212.521 267.905 214.144 269.098 215.767L269.334 216.051L279.672 213.502L279.697 212.968C279.697 205.815 279.696 198.663 279.702 191.51C279.702 191.194 279.625 190.94 279.425 190.69C278.556 189.595 277.702 188.487 276.842 187.385L276.652 187.154V187.154ZM279.433 221.812C277.869 222.186 276.299 222.543 274.698 222.965C274.867 223.265 279.26 229.18 279.515 229.46L279.675 229.549L279.693 229.188L279.694 226.698C279.695 225.254 279.698 223.809 279.695 222.364C279.695 222.189 279.745 222 279.623 221.822L279.433 221.812V221.812Z" fill="#FD4F31"/>
<defs>
<filter id="filter0_d_1_786" x="169.502" y="170.456" width="115" height="113.045" filterUnits="userSpaceOnUse" color-interpolation-filters="sRGB">
<feFlood flood-opacity="0" result="BackgroundImageFix"/>
<feColorMatrix in="SourceAlpha" type="matrix" values="0 0 0 0 0 0 0 0 0 0 0 0 0 0 0 0 0 0 127 0" result="hardAlpha"/>
<feOffset/>
<feGaussianBlur stdDeviation="2"/>
<feColorMatrix type="matrix" values="0 0 0 0 0 0 0 0 0 0 0 0 0 0 0 0 0 0 0.25 0"/>
<feBlend mode="normal" in2="BackgroundImageFix" result="effect1_dropShadow_1_786"/>
<feBlend mode="normal" in="SourceGraphic" in2="effect1_dropShadow_1_786" result="shape"/>
</filter>
<linearGradient id="paint0_linear_1_786" x1="300.001" y1="50.7857" x2="1.63474" y2="221.244" gradientUnits="userSpaceOnUse">
<stop stop-color="#FF5CAA"/>
<stop offset="1" stop-color="#FF4E62"/>
</linearGradient>
<linearGradient id="paint1_linear_1_786" x1="300.001" y1="50.7857" x2="1.63474" y2="221.244" gradientUnits="userSpaceOnUse">
<stop stop-color="#FF5CAA"/>
<stop offset="1" stop-color="#FF4E62"/>
</linearGradient>
<linearGradient id="paint2_linear_1_786" x1="300.001" y1="50.7857" x2="1.63474" y2="221.244" gradientUnits="userSpaceOnUse">
<stop stop-color="#FF5CAA"/>
<stop offset="1" stop-color="#FF4E62"/>
</linearGradient>
</defs>
</svg>
