<svg width="300" height="300" viewBox="0 0 300 300" fill="none" xmlns="http://www.w3.org/2000/svg">
<path d="M0 236.999L55.426 96.7674C63.2367 77.0059 82.499 63.9996 103.955 63.9996H137.371L81.9447 204.231C74.1341 223.993 54.8717 236.999 33.4156 236.999H0Z" fill="url(#paint0_linear_301_500)"/>
<path d="M81.3123 237L136.738 96.7678C144.549 77.0063 163.811 64 185.267 64H218.683L163.257 204.232C155.446 223.993 136.184 237 114.728 237H81.3123Z" fill="url(#paint1_linear_301_500)"/>
<path d="M162.629 237L218.055 96.7678C225.866 77.0063 245.128 64 266.584 64H300L244.574 204.232C236.763 223.993 217.501 237 196.045 237H162.629Z" fill="url(#paint2_linear_301_500)"/>
<g filter="url(#filter0_d_301_500)">
<rect x="180" y="180" width="100" height="100" rx="20" fill="white"/>
</g>
<path d="M236.944 193.435L259.619 193.41L221.576 231.433L211.662 241.293L200.381 229.998L236.944 193.435ZM236.733 227.385C237.027 226.997 237.569 227.188 237.98 227.138L259.6 227.144L239.895 246.829L228.556 235.559L236.733 227.385Z" fill="#44D1FD"/>
<path d="M217.254 246.848L228.557 235.559L239.896 246.829L239.943 246.879L228.559 258.157L217.254 246.848Z" fill="#1FBCFD"/>
<path d="M228.559 258.157L239.943 246.879L259.608 266.564C252.201 266.58 244.796 266.558 237.391 266.575C236.969 266.669 236.708 266.283 236.439 266.045L228.559 258.157Z" fill="#08589C"/>
<defs>
<filter id="filter0_d_301_500" x="176" y="176" width="108" height="108" filterUnits="userSpaceOnUse" color-interpolation-filters="sRGB">
<feFlood flood-opacity="0" result="BackgroundImageFix"/>
<feColorMatrix in="SourceAlpha" type="matrix" values="0 0 0 0 0 0 0 0 0 0 0 0 0 0 0 0 0 0 127 0" result="hardAlpha"/>
<feOffset/>
<feGaussianBlur stdDeviation="2"/>
<feColorMatrix type="matrix" values="0 0 0 0 0 0 0 0 0 0 0 0 0 0 0 0 0 0 0.25 0"/>
<feBlend mode="normal" in2="BackgroundImageFix" result="effect1_dropShadow_301_500"/>
<feBlend mode="normal" in="SourceGraphic" in2="effect1_dropShadow_301_500" result="shape"/>
</filter>
<linearGradient id="paint0_linear_301_500" x1="300.001" y1="50.7855" x2="1.63474" y2="221.244" gradientUnits="userSpaceOnUse">
<stop stop-color="#FF5CAA"/>
<stop offset="1" stop-color="#FF4E62"/>
</linearGradient>
<linearGradient id="paint1_linear_301_500" x1="300.001" y1="50.7855" x2="1.63474" y2="221.244" gradientUnits="userSpaceOnUse">
<stop stop-color="#FF5CAA"/>
<stop offset="1" stop-color="#FF4E62"/>
</linearGradient>
<linearGradient id="paint2_linear_301_500" x1="300.001" y1="50.7855" x2="1.63474" y2="221.244" gradientUnits="userSpaceOnUse">
<stop stop-color="#FF5CAA"/>
<stop offset="1" stop-color="#FF4E62"/>
</linearGradient>
</defs>
</svg>
