<svg width="300" height="300" viewBox="0 0 300 300" fill="none" xmlns="http://www.w3.org/2000/svg">
<path d="M0 236.999L55.426 96.7677C63.2367 77.0062 82.499 63.9999 103.955 63.9999H137.371L81.9447 204.232C74.1341 223.993 54.8717 236.999 33.4156 236.999H0Z" fill="url(#paint0_linear_1_334)"/>
<path d="M81.3123 237L136.738 96.7681C144.549 77.0066 163.811 64.0003 185.267 64.0003H218.683L163.257 204.232C155.446 223.994 136.184 237 114.728 237H81.3123Z" fill="url(#paint1_linear_1_334)"/>
<path d="M162.629 237L218.055 96.7681C225.866 77.0066 245.128 64.0003 266.584 64.0003H300L244.574 204.232C236.763 223.994 217.501 237 196.045 237H162.629Z" fill="url(#paint2_linear_1_334)"/>
<g filter="url(#filter0_d_1_334)">
<rect x="180" y="180" width="100" height="100" rx="20" fill="white"/>
</g>
<path d="M255.143 230H239.143V234.57H250.113C248.513 241.427 243.483 247.14 236.856 249.427L210.57 223.143C213.313 215.143 221.084 209.429 230 209.429C236.857 209.429 243.03 212.859 246.914 218.115L250.344 215.145C245.77 208.97 238.457 204.857 230 204.857C218.114 204.857 208.057 213.314 205.543 224.514L235.713 254.684C246.683 251.941 255.143 241.884 255.143 229.998V230ZM204.857 230.23C204.857 236.63 207.371 242.8 212.171 247.6C216.971 252.4 223.371 254.914 229.541 254.914L204.857 230.23Z" fill="white"/>
<path d="M230 198C212.4 198 198 212.4 198 230C198 247.6 212.4 262 230 262C247.6 262 262 247.6 262 230C262 212.4 247.6 198 230 198ZM212.17 247.83C207.37 243.03 204.856 236.63 204.856 230.46L229.77 255.143C223.37 254.913 216.97 252.629 212.17 247.829V247.83ZM235.484 254.46L205.543 224.514C208.057 213.314 218.114 204.857 230 204.857C238.457 204.857 245.77 208.971 250.343 215.143L246.913 218.113C243.03 212.857 236.857 209.43 230 209.43C221.086 209.43 213.543 215.144 210.57 223.144L236.857 249.43C243.487 247.144 248.514 241.43 250.114 234.573H239.144V230H255.144C255.144 241.886 246.687 251.943 235.487 254.457L235.484 254.46Z" fill="#663399"/>
<defs>
<filter id="filter0_d_1_334" x="176" y="176" width="108" height="108" filterUnits="userSpaceOnUse" color-interpolation-filters="sRGB">
<feFlood flood-opacity="0" result="BackgroundImageFix"/>
<feColorMatrix in="SourceAlpha" type="matrix" values="0 0 0 0 0 0 0 0 0 0 0 0 0 0 0 0 0 0 127 0" result="hardAlpha"/>
<feOffset/>
<feGaussianBlur stdDeviation="2"/>
<feColorMatrix type="matrix" values="0 0 0 0 0 0 0 0 0 0 0 0 0 0 0 0 0 0 0.25 0"/>
<feBlend mode="normal" in2="BackgroundImageFix" result="effect1_dropShadow_1_334"/>
<feBlend mode="normal" in="SourceGraphic" in2="effect1_dropShadow_1_334" result="shape"/>
</filter>
<linearGradient id="paint0_linear_1_334" x1="300.001" y1="50.7857" x2="1.63474" y2="221.244" gradientUnits="userSpaceOnUse">
<stop stop-color="#FF5CAA"/>
<stop offset="1" stop-color="#FF4E62"/>
</linearGradient>
<linearGradient id="paint1_linear_1_334" x1="300.001" y1="50.7857" x2="1.63474" y2="221.244" gradientUnits="userSpaceOnUse">
<stop stop-color="#FF5CAA"/>
<stop offset="1" stop-color="#FF4E62"/>
</linearGradient>
<linearGradient id="paint2_linear_1_334" x1="300.001" y1="50.7857" x2="1.63474" y2="221.244" gradientUnits="userSpaceOnUse">
<stop stop-color="#FF5CAA"/>
<stop offset="1" stop-color="#FF4E62"/>
</linearGradient>
</defs>
</svg>
