<svg width="300" height="300" viewBox="0 0 300 300" fill="none" xmlns="http://www.w3.org/2000/svg">
<path d="M223.929 57.1383L165.133 32.1811C123.262 14.408 74.9114 33.943 57.1382 75.8139L32.181 134.61C14.4079 176.48 33.9429 224.831 75.8138 242.604L134.609 267.562C176.48 285.335 224.831 265.8 242.604 223.929L267.562 165.133C285.335 123.262 265.8 74.9115 223.929 57.1383Z" fill="url(#paint0_linear)"/>
<path fill-rule="evenodd" clip-rule="evenodd" d="M92.4142 57.5303L123.264 44.4354C150.152 33.0221 162.786 31.3265 176.174 32.5303C189.561 33.7341 201.759 38.6622 212.226 47.0962C222.692 55.5301 230.603 65.5262 242.016 92.4143L255.111 123.264C266.524 150.152 268.22 162.786 267.016 176.174C265.812 189.562 260.884 201.759 252.45 212.226C244.016 222.692 234.02 230.603 207.132 242.016L176.282 255.111C149.394 266.524 136.76 268.22 123.372 267.016C109.985 265.812 97.7869 260.884 87.3204 252.45C76.8539 244.016 68.9435 234.02 57.5302 207.132L44.4352 176.282C33.0219 149.394 31.3264 136.76 32.5302 123.372C33.734 109.985 38.6621 97.7871 47.096 87.3206C55.5299 76.8541 65.526 68.9437 92.4142 57.5303Z" fill="url(#paint1_linear)"/>
<path fill-rule="evenodd" clip-rule="evenodd" d="M182.849 108.831C201.844 108.831 215.927 122.75 215.927 145.349V190.709H189.235V149.606C189.235 138.307 183.831 132.903 174.988 132.903C170.895 132.903 166.801 134.705 162.871 139.453C163.034 141.419 163.198 143.384 163.198 145.349V190.709H136.67V149.606C136.67 138.307 131.102 132.903 122.423 132.903C118.329 132.903 114.399 134.868 110.469 139.945V190.709H83.9404V111.288H110.469V116.036C115.873 111.451 121.44 108.831 130.283 108.831C140.272 108.831 148.788 112.598 154.683 119.475C163.034 112.106 171.058 108.831 182.849 108.831Z" fill="white"/>
<g filter="url(#filter0_d)">
<rect x="180" y="180" width="100" height="100" rx="20" fill="white"/>
</g>
<path d="M215.582 213.424L211.444 209.284L211.46 239.187L211.51 240.583C211.53 241.243 211.655 241.983 211.855 242.753L244.63 254.313L252.83 250.683L252.837 250.671L215.58 213.424H215.582Z" fill="#00C4B3"/>
<path d="M211.856 242.753H211.859C211.856 242.741 211.851 242.727 211.845 242.713C211.852 242.728 211.852 242.743 211.855 242.753H211.856ZM252.822 250.683L244.622 254.313L211.852 242.753C212.477 245.157 213.864 247.859 215.354 249.333L226.044 259.97L249.832 260L252.812 250.683H252.822Z" fill="#22D3C5"/>
<path d="M211.556 209.285L198.813 228.53C197.755 229.66 198.283 231.992 199.986 233.71L207.342 241.126L211.966 242.756C211.766 241.988 211.64 241.256 211.621 240.586L211.571 239.19L211.556 209.287V209.285Z" fill="#0075C9"/>
<path d="M244.9 209.67C244.13 209.475 243.392 209.352 242.727 209.333L241.249 209.279L211.444 209.286L252.836 250.672L256.472 242.472L244.902 209.672L244.9 209.67Z" fill="#0075C9"/>
<path d="M244.862 209.663C244.875 209.668 244.889 209.671 244.9 209.673V209.669C244.887 209.666 244.875 209.666 244.862 209.661V209.663ZM251.477 213.181C249.972 211.666 247.307 210.281 244.9 209.673L256.47 242.47L252.83 250.67L261.712 247.832L261.732 223.48L251.476 213.18L251.477 213.181Z" fill="#00A8E1"/>
<path d="M243.278 205.075L235.878 197.715C234.152 196.018 231.82 195.488 230.7 196.544L211.456 209.284L241.261 209.277L242.739 209.331C243.404 209.351 244.143 209.473 244.912 209.668L243.28 205.073L243.278 205.075Z" fill="#00C4B3"/>
<defs>
<filter id="filter0_d" x="176" y="176" width="108" height="108" filterUnits="userSpaceOnUse" color-interpolation-filters="sRGB">
<feFlood flood-opacity="0" result="BackgroundImageFix"/>
<feColorMatrix in="SourceAlpha" type="matrix" values="0 0 0 0 0 0 0 0 0 0 0 0 0 0 0 0 0 0 127 0"/>
<feOffset/>
<feGaussianBlur stdDeviation="2"/>
<feColorMatrix type="matrix" values="0 0 0 0 0 0 0 0 0 0 0 0 0 0 0 0 0 0 0.25 0"/>
<feBlend mode="normal" in2="BackgroundImageFix" result="effect1_dropShadow"/>
<feBlend mode="normal" in="SourceGraphic" in2="effect1_dropShadow" result="shape"/>
</filter>
<linearGradient id="paint0_linear" x1="101.746" y1="5.27474" x2="210.423" y2="299.743" gradientUnits="userSpaceOnUse">
<stop stop-color="#E41359"/>
<stop offset="1" stop-color="#F23C79"/>
</linearGradient>
<linearGradient id="paint1_linear" x1="107.839" y1="50.9829" x2="191.707" y2="248.563" gradientUnits="userSpaceOnUse">
<stop stop-color="#24222F"/>
<stop offset="1" stop-color="#2B2937"/>
</linearGradient>
</defs>
</svg>
