<svg width="300" height="300" viewBox="0 0 300 300" fill="none" xmlns="http://www.w3.org/2000/svg">
<path d="M224.054 57.2635L165.259 32.3062C123.388 14.5331 75.0369 34.0682 57.2637 75.939L32.3065 134.735C14.5334 176.605 34.0684 224.956 75.9393 242.73L134.735 267.687C176.606 285.46 224.957 265.925 242.73 224.054L267.687 165.258C285.46 123.388 265.925 75.0366 224.054 57.2635Z" fill="url(#paint0_linear)"/>
<path fill-rule="evenodd" clip-rule="evenodd" d="M92.5395 57.6554L123.389 44.5605C150.277 33.1472 162.912 31.4516 176.299 32.6554C189.687 33.8592 201.884 38.7874 212.351 47.2213C222.817 55.6552 230.728 65.6513 242.141 92.5395L255.236 123.389C266.649 150.277 268.345 162.911 267.141 176.299C265.937 189.687 261.009 201.884 252.575 212.351C244.141 222.817 234.145 230.728 207.257 242.141L176.408 255.236C149.519 266.649 136.885 268.345 123.498 267.141C110.11 265.937 97.9123 261.009 87.4458 252.575C76.9793 244.141 69.0689 234.145 57.6555 207.257L44.5606 176.407C33.1473 149.519 31.4517 136.885 32.6555 123.497C33.8593 110.11 38.7874 97.9122 47.2214 87.4457C55.6553 76.9792 65.6514 69.0688 92.5395 57.6554Z" fill="url(#paint1_linear)"/>
<path fill-rule="evenodd" clip-rule="evenodd" d="M182.974 108.956C201.97 108.956 216.053 122.876 216.053 145.474V190.834H189.36V149.731C189.36 138.432 183.957 133.028 175.114 133.028C171.02 133.028 166.926 134.83 162.996 139.579C163.16 141.544 163.323 143.509 163.323 145.474V190.834H136.795V149.731C136.795 138.432 131.227 133.028 122.548 133.028C118.454 133.028 114.524 134.993 110.594 140.07V190.834H84.0657V111.413H110.594V116.162C115.998 111.576 121.566 108.956 130.408 108.956C140.398 108.956 148.913 112.723 154.808 119.6C163.16 112.231 171.184 108.956 182.974 108.956Z" fill="white"/>
<g filter="url(#filter0_d)">
<path d="M277.632 205.601C277.631 203.413 277.409 201.231 276.968 199.087C276.528 196.892 275.779 194.769 274.744 192.781C273.662 190.854 272.317 189.085 270.747 187.523C269.129 185.953 267.248 184.672 265.19 183.737C263.158 182.722 260.985 182.012 258.742 181.632C256.517 181.208 254.074 181.208 251.849 181H196.969C195.257 181.028 193.549 181.169 191.856 181.424C190.176 181.62 188.532 182.046 186.97 182.689C186.525 182.897 185.862 183.113 185.417 183.321C183.939 184.106 182.534 185.019 181.219 186.05C180.774 186.474 180.329 186.682 179.884 187.098C178.248 188.602 176.895 190.383 175.888 192.356C174.788 194.317 174.036 196.45 173.663 198.663C173.332 200.822 173.111 202.996 173 205.177V255.419C173.001 257.607 173.223 259.789 173.663 261.933C174.104 264.128 174.853 266.251 175.888 268.239C176.97 270.166 178.315 271.935 179.884 273.497C181.503 275.067 183.383 276.348 185.442 277.283C187.474 278.298 189.647 279.008 191.89 279.388C194.114 279.812 196.557 279.812 198.782 280.02H251.858C254.17 280.018 256.477 279.807 258.75 279.388C260.993 279.008 263.166 278.298 265.198 277.283C267.213 276.273 269.082 274.999 270.756 273.497C272.392 271.994 273.745 270.213 274.752 268.239C275.852 266.279 276.604 264.146 276.977 261.933C277.308 259.774 277.529 257.6 277.64 255.419V205.601H277.632Z" fill="#F05138"/>
<path d="M242.934 257.549C233.606 262.649 220.787 263.173 207.883 257.94C197.822 253.894 189.22 246.947 183.192 237.998C185.993 240.123 189.054 241.889 192.301 243.256C205.624 249.163 218.94 248.755 228.317 243.256C214.969 233.555 203.635 220.942 195.189 210.643C193.522 208.902 192.035 207.001 190.748 204.969C200.957 213.796 217.193 224.936 222.969 228.089C214.722 219.715 207.144 210.72 200.302 201.183C211.675 212.136 224.19 221.861 237.636 230.194C238.232 230.51 238.694 230.776 239.063 231.026C239.457 230.072 239.797 229.097 240.079 228.106C243.194 217.382 239.634 205.193 231.86 195.102C249.86 205.393 260.564 224.728 256.081 240.918C255.963 241.359 255.837 241.75 255.703 242.207L255.862 242.39C264.753 252.898 262.31 264.021 261.193 261.941C256.366 252.973 247.442 255.743 242.934 257.549Z" fill="#FEFEFE"/>
</g>
<defs>
<filter id="filter0_d" x="169" y="177" width="112.64" height="107.02" filterUnits="userSpaceOnUse" color-interpolation-filters="sRGB">
<feFlood flood-opacity="0" result="BackgroundImageFix"/>
<feColorMatrix in="SourceAlpha" type="matrix" values="0 0 0 0 0 0 0 0 0 0 0 0 0 0 0 0 0 0 127 0"/>
<feOffset/>
<feGaussianBlur stdDeviation="2"/>
<feColorMatrix type="matrix" values="0 0 0 0 0 0 0 0 0 0 0 0 0 0 0 0 0 0 0.25 0"/>
<feBlend mode="normal" in2="BackgroundImageFix" result="effect1_dropShadow"/>
<feBlend mode="normal" in="SourceGraphic" in2="effect1_dropShadow" result="shape"/>
</filter>
<linearGradient id="paint0_linear" x1="101.871" y1="5.39986" x2="210.549" y2="299.868" gradientUnits="userSpaceOnUse">
<stop stop-color="#E41359"/>
<stop offset="1" stop-color="#F23C79"/>
</linearGradient>
<linearGradient id="paint1_linear" x1="107.964" y1="51.108" x2="191.832" y2="248.689" gradientUnits="userSpaceOnUse">
<stop stop-color="#24222F"/>
<stop offset="1" stop-color="#2B2937"/>
</linearGradient>
</defs>
</svg>
