<svg width="300" height="300" viewBox="0 0 300 300" fill="none" xmlns="http://www.w3.org/2000/svg">
<path d="M0 236.999L55.426 96.7677C63.2367 77.0062 82.499 63.9999 103.955 63.9999H137.371L81.9447 204.232C74.1341 223.993 54.8717 236.999 33.4156 236.999H0Z" fill="url(#paint0_linear_1_290)"/>
<path d="M81.3123 237L136.738 96.7681C144.549 77.0066 163.811 64.0003 185.267 64.0003H218.683L163.257 204.232C155.446 223.994 136.184 237 114.728 237H81.3123Z" fill="url(#paint1_linear_1_290)"/>
<path d="M162.629 237L218.055 96.7681C225.866 77.0066 245.128 64.0003 266.584 64.0003H300L244.574 204.232C236.763 223.994 217.501 237 196.045 237H162.629Z" fill="url(#paint2_linear_1_290)"/>
<g filter="url(#filter0_d_1_290)">
<rect x="180.627" y="179.626" width="100" height="100" rx="20" fill="white"/>
</g>
<g clip-path="url(#clip0_1_290)">
<path d="M239.728 218.488L241.778 218.523L247.348 212.953L247.618 210.593C243.2 206.657 237.367 204.26 230.993 204.26C219.453 204.26 209.713 212.112 206.83 222.748C207.438 222.324 208.738 222.642 208.738 222.642L219.868 220.812C219.868 220.812 220.44 219.865 220.73 219.912C222.031 218.482 223.617 217.34 225.386 216.559C227.154 215.777 229.067 215.374 231 215.375C234.3 215.382 237.34 216.548 239.728 218.477V218.488Z" fill="#EA4335"/>
<path d="M255.17 222.77C253.877 218 251.212 213.788 247.615 210.593L239.728 218.48C242.888 221.03 244.915 224.932 244.915 229.3V230.692C248.752 230.692 251.869 233.816 251.869 237.646C251.869 241.483 248.745 244.6 244.915 244.6H231.007L229.615 246V254.346L231.007 255.731H244.915C249.709 255.724 254.305 253.817 257.695 250.427C261.085 247.037 262.993 242.441 263 237.647C262.993 231.492 259.9 226.047 255.17 222.771V222.77Z" fill="#4285F4"/>
<path d="M217.085 255.74H230.985V244.6H217.085C216.097 244.6 215.121 244.388 214.223 243.978L212.216 244.593L206.646 250.163L206.158 252.043C209.297 254.438 213.136 255.734 217.084 255.732L217.085 255.74Z" fill="#34A853"/>
<path d="M217.085 219.57C212.291 219.577 207.695 221.484 204.305 224.874C200.914 228.264 199.007 232.86 199 237.654C199 243.527 201.813 248.749 206.166 252.057L214.23 243.993C213.009 243.443 211.973 242.552 211.246 241.427C210.519 240.303 210.132 238.993 210.131 237.654C210.131 233.817 213.255 230.7 217.085 230.7C219.905 230.7 222.329 232.4 223.425 234.8L231.489 226.736C228.182 222.383 222.959 219.57 217.086 219.57H217.085Z" fill="#FBBC05"/>
</g>
<defs>
<filter id="filter0_d_1_290" x="176.627" y="175.626" width="108" height="108" filterUnits="userSpaceOnUse" color-interpolation-filters="sRGB">
<feFlood flood-opacity="0" result="BackgroundImageFix"/>
<feColorMatrix in="SourceAlpha" type="matrix" values="0 0 0 0 0 0 0 0 0 0 0 0 0 0 0 0 0 0 127 0" result="hardAlpha"/>
<feOffset/>
<feGaussianBlur stdDeviation="2"/>
<feColorMatrix type="matrix" values="0 0 0 0 0 0 0 0 0 0 0 0 0 0 0 0 0 0 0.25 0"/>
<feBlend mode="normal" in2="BackgroundImageFix" result="effect1_dropShadow_1_290"/>
<feBlend mode="normal" in="SourceGraphic" in2="effect1_dropShadow_1_290" result="shape"/>
</filter>
<linearGradient id="paint0_linear_1_290" x1="300.001" y1="50.7857" x2="1.63474" y2="221.244" gradientUnits="userSpaceOnUse">
<stop stop-color="#FF5CAA"/>
<stop offset="1" stop-color="#FF4E62"/>
</linearGradient>
<linearGradient id="paint1_linear_1_290" x1="300.001" y1="50.7857" x2="1.63474" y2="221.244" gradientUnits="userSpaceOnUse">
<stop stop-color="#FF5CAA"/>
<stop offset="1" stop-color="#FF4E62"/>
</linearGradient>
<linearGradient id="paint2_linear_1_290" x1="300.001" y1="50.7857" x2="1.63474" y2="221.244" gradientUnits="userSpaceOnUse">
<stop stop-color="#FF5CAA"/>
<stop offset="1" stop-color="#FF4E62"/>
</linearGradient>
<clipPath id="clip0_1_290">
<rect width="64" height="64" fill="white" transform="translate(199 198)"/>
</clipPath>
</defs>
</svg>
