<svg width="300" height="300" viewBox="0 0 300 300" fill="none" xmlns="http://www.w3.org/2000/svg">
<path d="M0 236.999L55.426 96.7677C63.2367 77.0062 82.499 63.9999 103.955 63.9999H137.371L81.9447 204.232C74.1341 223.993 54.8717 236.999 33.4156 236.999H0Z" fill="url(#paint0_linear_1_24)"/>
<path d="M81.3123 237L136.738 96.7681C144.549 77.0066 163.811 64.0003 185.267 64.0003H218.683L163.257 204.232C155.446 223.994 136.184 237 114.728 237H81.3123Z" fill="url(#paint1_linear_1_24)"/>
<path d="M162.629 237L218.055 96.7681C225.866 77.0066 245.128 64.0003 266.584 64.0003H300L244.574 204.232C236.763 223.994 217.501 237 196.045 237H162.629Z" fill="url(#paint2_linear_1_24)"/>
<g filter="url(#filter0_d_1_24)">
<rect x="180" y="180" width="100" height="100" rx="20" fill="white"/>
</g>
<path d="M230.376 210.423C208.687 210.423 191.103 219.334 191.103 230.326C191.103 241.318 208.687 250.23 230.376 250.23C252.066 250.23 269.65 241.318 269.65 230.326C269.65 219.334 252.066 210.423 230.376 210.423V210.423ZM220.157 234.204C219.22 235.081 218.179 235.443 217.033 235.816C215.887 236.189 214.428 236.112 212.655 236.112H208.635L207.521 242.54H202.827L207.016 220.684H216.041C218.756 220.684 220.737 221.465 221.982 222.89C223.227 224.315 223.602 226.338 223.105 228.892C222.9 229.945 222.555 230.923 222.068 231.795C221.58 232.667 220.943 233.482 220.157 234.204V234.204ZM233.857 236.112L235.709 226.842C235.92 225.757 235.843 224.951 235.477 224.557C235.11 224.162 234.331 223.898 233.14 223.898H229.418L227.02 236.112H222.363L226.551 214.898H231.208L230.094 220.684H234.243C236.853 220.684 238.653 221.208 239.644 222.118C240.634 223.028 240.931 224.275 240.535 226.314L238.587 236.112H233.857V236.112ZM259.737 228.926C259.533 229.979 259.187 230.94 258.7 231.811C258.213 232.684 257.577 233.482 256.79 234.204C255.853 235.081 254.812 235.443 253.666 235.816C252.521 236.189 251.061 236.112 249.287 236.112H245.267L244.154 242.54H239.461L243.648 220.684H252.674C255.39 220.684 257.37 221.465 258.615 222.89C259.859 224.315 260.233 226.373 259.737 228.926V228.926ZM250.895 223.898H247.681L245.928 232.898H248.783C250.674 232.898 252.085 232.711 253.01 231.998C253.937 231.286 254.562 230.18 254.886 228.513C255.197 226.912 255.056 225.663 254.462 225.004C253.867 224.346 252.679 223.898 250.895 223.898V223.898ZM214.263 223.898H211.047L209.294 232.898H212.149C214.041 232.898 215.451 232.711 216.377 231.998C217.304 231.286 217.928 230.18 218.252 228.513C218.564 226.912 218.422 225.663 217.828 225.004C217.234 224.346 216.046 223.898 214.263 223.898Z" fill="#6181B6"/>
<defs>
<filter id="filter0_d_1_24" x="176" y="176" width="108" height="108" filterUnits="userSpaceOnUse" color-interpolation-filters="sRGB">
<feFlood flood-opacity="0" result="BackgroundImageFix"/>
<feColorMatrix in="SourceAlpha" type="matrix" values="0 0 0 0 0 0 0 0 0 0 0 0 0 0 0 0 0 0 127 0" result="hardAlpha"/>
<feOffset/>
<feGaussianBlur stdDeviation="2"/>
<feColorMatrix type="matrix" values="0 0 0 0 0 0 0 0 0 0 0 0 0 0 0 0 0 0 0.25 0"/>
<feBlend mode="normal" in2="BackgroundImageFix" result="effect1_dropShadow_1_24"/>
<feBlend mode="normal" in="SourceGraphic" in2="effect1_dropShadow_1_24" result="shape"/>
</filter>
<linearGradient id="paint0_linear_1_24" x1="300.001" y1="50.7857" x2="1.63474" y2="221.244" gradientUnits="userSpaceOnUse">
<stop stop-color="#FF5CAA"/>
<stop offset="1" stop-color="#FF4E62"/>
</linearGradient>
<linearGradient id="paint1_linear_1_24" x1="300.001" y1="50.7857" x2="1.63474" y2="221.244" gradientUnits="userSpaceOnUse">
<stop stop-color="#FF5CAA"/>
<stop offset="1" stop-color="#FF4E62"/>
</linearGradient>
<linearGradient id="paint2_linear_1_24" x1="300.001" y1="50.7857" x2="1.63474" y2="221.244" gradientUnits="userSpaceOnUse">
<stop stop-color="#FF5CAA"/>
<stop offset="1" stop-color="#FF4E62"/>
</linearGradient>
</defs>
</svg>
