<svg width="301" height="301" viewBox="0 0 301 301" fill="none" xmlns="http://www.w3.org/2000/svg">
<path d="M224.427 57.6379L165.631 32.6806C123.76 14.9075 75.4094 34.4426 57.6363 76.3134L32.679 135.109C14.9059 176.98 34.441 225.331 76.3118 243.104L135.107 268.061C176.978 285.834 225.329 266.299 243.102 224.428L268.06 165.633C285.833 123.762 266.298 75.411 224.427 57.6379Z" fill="url(#paint0_linear)"/>
<path fill-rule="evenodd" clip-rule="evenodd" d="M92.9121 58.0298L123.762 44.9349C150.65 33.5216 163.284 31.826 176.672 33.0298C190.059 34.2336 202.257 39.1618 212.723 47.5957C223.19 56.0296 231.1 66.0257 242.514 92.9139L255.609 123.764C267.022 150.652 268.718 163.286 267.514 176.674C266.31 190.061 261.382 202.259 252.948 212.725C244.514 223.192 234.518 231.102 207.63 242.516L176.78 255.61C149.892 267.024 137.258 268.719 123.87 267.516C110.482 266.312 98.2849 261.384 87.8184 252.95C77.3519 244.516 69.4414 234.52 58.0281 207.632L44.9332 176.782C33.5198 149.894 31.8243 137.26 33.0281 123.872C34.2319 110.484 39.16 98.2866 47.5939 87.8201C56.0278 77.3536 66.0239 69.4432 92.9121 58.0298Z" fill="url(#paint1_linear)"/>
<path fill-rule="evenodd" clip-rule="evenodd" d="M183.347 109.331C202.342 109.331 216.425 123.25 216.425 145.848V191.208H189.733V150.106C189.733 138.807 184.329 133.403 175.487 133.403C171.393 133.403 167.299 135.204 163.369 139.953C163.532 141.918 163.696 143.883 163.696 145.848V191.208H137.168V150.106C137.168 138.807 131.6 133.403 122.921 133.403C118.827 133.403 114.897 135.368 110.967 140.444V191.208H84.4385V111.787H110.967V116.536C116.371 111.951 121.938 109.331 130.781 109.331C140.77 109.331 149.286 113.097 155.181 119.975C163.532 112.606 171.556 109.331 183.347 109.331Z" fill="white"/>
<g filter="url(#filter0_d)">
<rect x="174" y="174.955" width="107" height="105.045" rx="19" fill="white"/>
</g>
<path fill-rule="evenodd" clip-rule="evenodd" d="M187.425 174.719C186.475 174.793 185.543 174.781 184.623 175.032C182.612 175.583 180.825 176.463 179.249 177.819C178.322 178.616 177.513 179.475 176.827 180.486C175.767 182.049 175.045 183.728 174.682 185.618C174.827 185.871 174.98 186.136 175.142 186.406C176.169 188.119 177.197 189.819 178.226 191.53L180.932 196.019C181.765 197.402 182.595 198.786 183.426 200.169L187.308 206.63C188.191 208.099 189.074 209.569 189.956 211.037C191.243 213.175 192.533 215.313 193.818 217.452L198.543 225.327C199.906 227.595 201.271 229.862 202.636 232.128L202.818 232.392C203.016 232.455 203.173 232.401 203.337 232.363C205.134 231.932 206.932 231.505 208.73 231.076C211.646 230.381 214.562 229.689 217.478 228.993L222.046 227.903C224.994 227.2 227.942 226.499 230.89 225.795C233.87 225.084 236.849 224.37 239.83 223.658C241.337 223.298 242.843 222.939 244.35 222.58C247.266 221.886 250.182 221.193 253.098 220.501L262.625 218.238L263.14 218.099L263 217.821L260.4 214.155L257.832 210.529L255.085 206.66L252.46 202.952L249.858 199.287L247.172 195.499C246.295 194.264 245.416 193.03 244.538 191.796L243.151 189.841C242.938 189.541 242.769 189.218 242.656 188.867C242.381 188.018 242.695 187.452 243.192 187.034C243.514 186.763 243.884 186.564 244.286 186.446C244.844 186.282 245.408 186.125 245.979 186.018C247.124 185.802 248.277 185.618 249.426 185.428L253.322 184.794C254.143 184.659 254.964 184.517 255.785 184.378C256.901 184.19 258.018 184.001 259.135 183.815C260.219 183.634 261.304 183.454 262.388 183.276L265.937 182.697L268.401 182.284C269.338 182.128 270.274 181.972 271.21 181.819C272.378 181.629 273.545 181.438 274.712 181.255C275.408 181.147 276.104 181.109 276.795 181.307C277.313 181.456 277.785 181.698 278.224 182.007L278.831 182.43C278.892 182.291 278.804 182.215 278.764 182.135C277.888 180.366 276.693 178.845 275.175 177.579C273.764 176.401 272.179 175.534 270.426 174.982C269.391 174.655 268.327 174.807 267.243 174.726L187.425 174.719ZM220.077 280C220.024 280 219.978 279.622 219.919 279.522C218.655 277.371 217.378 275.061 216.129 272.902C214.556 270.181 212.998 267.452 211.447 264.717C209.792 261.794 208.151 258.863 206.508 255.934C204.946 253.149 203.389 250.361 201.833 247.574C200.893 245.889 199.96 244.201 199.021 242.515L198.772 242.129L198.315 242.219C197.412 242.452 196.51 242.686 195.609 242.923C194.354 243.253 193.099 243.588 191.843 243.915C189.023 244.647 186.203 245.375 183.383 246.104C180.515 246.847 177.527 247.592 174.658 248.331C174.484 248.376 174.843 248.391 174 248.42V266.19C174.347 266.741 174.314 266.481 174.336 266.663C174.403 267.189 174.511 267.719 174.603 268.24C174.95 270.181 175.731 271.959 176.86 273.577C178.516 275.952 180.721 277.65 183.422 278.688C184.387 279.058 185.393 279.318 186.423 279.445L187.469 279.72" fill="#FD4F31"/>
<path fill-rule="evenodd" clip-rule="evenodd" d="M177.35 238.606C180.669 237.818 183.988 237.032 187.307 236.246C188.764 235.901 190.223 235.561 191.68 235.215C192.409 235.042 193.14 234.877 193.862 234.682C194.506 234.509 194.585 234.296 194.254 233.717C193.776 232.88 193.289 232.048 192.804 231.214L188.538 223.886L184.273 216.557C182.826 214.071 181.378 211.586 179.93 209.101C178.691 206.974 177.452 204.848 176.213 202.722C175.677 201.803 175.027 200.881 174.489 199.963C174.388 199.795 174.843 199.595 174 199.506V239.336C174 239.309 174.382 239.286 174.511 239.255L177.35 238.606ZM279.504 267.075C278.203 267.537 276.901 268.001 275.601 268.466C272.64 269.525 269.678 270.584 266.717 271.643C265.071 272.233 263.429 272.828 261.783 273.415C258.428 274.609 255.071 275.799 251.716 276.991C249.771 277.681 247.826 278.535 245.882 279.229C245.35 279.42 244.825 280 244.297 280H266.616L267.096 279.725C267.664 279.701 268.222 279.533 268.78 279.431C271.071 279.013 273.122 278.025 274.94 276.581C276.336 275.47 277.472 274.113 278.361 272.565C279.276 270.972 279.82 269.248 280.081 267.438C280.104 267.282 280.152 267.105 280.021 266.943C279.836 266.929 279.672 267.016 279.504 267.075ZM277.587 237.183C276.603 235.84 275.616 234.5 274.634 233.156C273.278 231.301 271.925 229.445 270.571 227.589C270.021 226.836 269.463 226.089 268.927 225.328C268.765 225.098 268.58 225.037 268.329 225.105L268.184 225.146C265.692 225.751 263.199 226.353 260.706 226.956L256.239 228.037C253.327 228.742 250.413 229.448 247.501 230.154C244.62 230.852 241.739 231.552 238.858 232.248L229.875 234.418C226.929 235.132 223.984 235.848 221.039 236.562L212.494 238.631C210.988 238.996 209.483 239.359 207.979 239.725C207.757 239.779 207.519 239.792 207.283 239.97L207.484 240.353C208.746 242.526 210.007 244.698 211.271 246.87C212.703 249.329 214.135 251.787 215.571 254.243C217.15 256.943 218.733 259.641 220.314 262.341C221.223 263.891 222.126 265.443 223.043 266.99C224.062 268.707 225.084 270.422 226.121 272.128C226.432 272.638 226.785 273.126 227.14 273.607C227.379 273.928 227.674 274.202 228.022 274.411C228.38 274.627 228.767 274.695 229.175 274.603C229.386 274.555 229.592 274.486 229.796 274.416L230.546 274.138C233.273 273.208 235.999 272.278 238.727 271.351C240.856 270.628 242.986 269.909 245.116 269.19C247.23 268.475 249.346 267.764 251.46 267.052L257.757 264.931C259.904 264.207 262.05 263.484 264.196 262.758C266.83 261.867 269.463 260.972 272.098 260.082C274.638 259.225 277.181 258.373 279.722 257.517C279.878 257.465 280.05 257.443 280.179 257.272L280.195 256.904C280.195 251.647 280.194 246.39 280.2 241.133C280.2 240.853 280.125 240.626 279.956 240.4C279.157 239.333 278.375 238.256 277.587 237.183ZM277.15 187.654C276.558 186.907 275.805 186.67 274.882 186.91C274.48 187.015 274.067 187.082 273.657 187.156C272.314 187.402 270.97 187.643 269.627 187.886C267.66 188.242 265.695 188.602 263.728 188.955C262.171 189.234 260.614 189.508 259.056 189.781L252.806 190.872C252.544 190.917 252.279 190.962 252.027 191.043C251.658 191.161 251.552 191.391 251.721 191.736C251.858 192.019 252.029 192.288 252.214 192.542C253.507 194.319 254.805 196.091 256.104 197.864C257.893 200.309 259.683 202.753 261.474 205.195C262.989 207.263 264.505 209.33 266.021 211.396C267.212 213.02 268.403 214.644 269.597 216.266L269.832 216.55L280.17 214.002L280.195 213.467C280.195 206.315 280.194 199.163 280.2 192.009C280.2 191.693 280.123 191.44 279.923 191.189C279.054 190.094 278.2 188.987 277.34 187.884L277.15 187.654ZM279.931 222.311C278.367 222.686 276.798 223.042 275.196 223.465C275.365 223.765 279.758 229.679 280.013 229.96L280.173 230.048L280.191 229.688L280.192 227.198C280.193 225.753 280.196 224.309 280.193 222.864C280.193 222.688 280.243 222.499 280.121 222.321L279.931 222.311Z" fill="#FD4F31"/>
<defs>
<filter id="filter0_d" x="170" y="170.955" width="115" height="113.045" filterUnits="userSpaceOnUse" color-interpolation-filters="sRGB">
<feFlood flood-opacity="0" result="BackgroundImageFix"/>
<feColorMatrix in="SourceAlpha" type="matrix" values="0 0 0 0 0 0 0 0 0 0 0 0 0 0 0 0 0 0 127 0"/>
<feOffset/>
<feGaussianBlur stdDeviation="2"/>
<feColorMatrix type="matrix" values="0 0 0 0 0 0 0 0 0 0 0 0 0 0 0 0 0 0 0.25 0"/>
<feBlend mode="normal" in2="BackgroundImageFix" result="effect1_dropShadow"/>
<feBlend mode="normal" in="SourceGraphic" in2="effect1_dropShadow" result="shape"/>
</filter>
<linearGradient id="paint0_linear" x1="102.244" y1="5.77425" x2="210.921" y2="300.242" gradientUnits="userSpaceOnUse">
<stop stop-color="#E41359"/>
<stop offset="1" stop-color="#F23C79"/>
</linearGradient>
<linearGradient id="paint1_linear" x1="108.337" y1="51.4824" x2="192.205" y2="249.063" gradientUnits="userSpaceOnUse">
<stop stop-color="#24222F"/>
<stop offset="1" stop-color="#2B2937"/>
</linearGradient>
</defs>
</svg>
