<svg width="300" height="301" viewBox="0 0 300 301" fill="none" xmlns="http://www.w3.org/2000/svg">
<path d="M0 237.999L55.426 97.7677C63.2367 78.0062 82.499 64.9999 103.955 64.9999H137.371L81.9447 205.232C74.1341 224.993 54.8717 237.999 33.4156 237.999H0Z" fill="url(#paint0_linear_1_347)"/>
<path d="M81.3123 238L136.738 97.7681C144.549 78.0066 163.811 65.0003 185.267 65.0003H218.683L163.257 205.232C155.446 224.994 136.184 238 114.728 238H81.3123Z" fill="url(#paint1_linear_1_347)"/>
<path d="M162.629 238L218.055 97.7681C225.866 78.0066 245.128 65.0003 266.584 65.0003H300L244.574 205.232C236.763 224.994 217.501 238 196.045 238H162.629Z" fill="url(#paint2_linear_1_347)"/>
<g filter="url(#filter0_d_1_347)">
<rect x="180" y="180" width="100" height="100" rx="20" fill="white"/>
</g>
<path fill-rule="evenodd" clip-rule="evenodd" d="M237.959 248.322V224.322C237.958 223.911 237.795 223.518 237.505 223.227C237.215 222.937 236.821 222.774 236.411 222.774H212.438V198H261.158C261.361 198 261.562 198.04 261.75 198.118C261.938 198.195 262.108 198.309 262.252 198.453C262.396 198.597 262.51 198.768 262.588 198.955C262.666 199.143 262.706 199.344 262.706 199.548V248.322H237.959Z" fill="#8E75FF"/>
<path opacity="0.405" fill-rule="evenodd" clip-rule="evenodd" d="M212.438 198V222.774H189.558C189.405 222.774 189.255 222.729 189.128 222.644C189.001 222.559 188.902 222.438 188.843 222.297C188.785 222.155 188.769 222 188.799 221.85C188.829 221.699 188.902 221.562 189.01 221.453L212.438 198ZM237.959 271.227V248.322H262.706L239.28 271.773C239.172 271.882 239.034 271.955 238.884 271.985C238.733 272.015 238.578 272 238.437 271.941C238.295 271.883 238.174 271.783 238.089 271.656C238.004 271.529 237.959 271.38 237.959 271.227V271.227ZM212.438 222.774H237.185C237.39 222.774 237.587 222.856 237.732 223.001C237.877 223.146 237.958 223.343 237.959 223.548V248.322H213.986C213.783 248.322 213.581 248.282 213.394 248.204C213.206 248.127 213.035 248.013 212.891 247.869C212.748 247.725 212.634 247.555 212.556 247.367C212.478 247.179 212.438 246.978 212.438 246.775V222.774Z" fill="#8E75FF"/>
<defs>
<filter id="filter0_d_1_347" x="176" y="176" width="108" height="108" filterUnits="userSpaceOnUse" color-interpolation-filters="sRGB">
<feFlood flood-opacity="0" result="BackgroundImageFix"/>
<feColorMatrix in="SourceAlpha" type="matrix" values="0 0 0 0 0 0 0 0 0 0 0 0 0 0 0 0 0 0 127 0" result="hardAlpha"/>
<feOffset/>
<feGaussianBlur stdDeviation="2"/>
<feColorMatrix type="matrix" values="0 0 0 0 0 0 0 0 0 0 0 0 0 0 0 0 0 0 0.25 0"/>
<feBlend mode="normal" in2="BackgroundImageFix" result="effect1_dropShadow_1_347"/>
<feBlend mode="normal" in="SourceGraphic" in2="effect1_dropShadow_1_347" result="shape"/>
</filter>
<linearGradient id="paint0_linear_1_347" x1="300.001" y1="51.7857" x2="1.63474" y2="222.244" gradientUnits="userSpaceOnUse">
<stop stop-color="#FF5CAA"/>
<stop offset="1" stop-color="#FF4E62"/>
</linearGradient>
<linearGradient id="paint1_linear_1_347" x1="300.001" y1="51.7857" x2="1.63474" y2="222.244" gradientUnits="userSpaceOnUse">
<stop stop-color="#FF5CAA"/>
<stop offset="1" stop-color="#FF4E62"/>
</linearGradient>
<linearGradient id="paint2_linear_1_347" x1="300.001" y1="51.7857" x2="1.63474" y2="222.244" gradientUnits="userSpaceOnUse">
<stop stop-color="#FF5CAA"/>
<stop offset="1" stop-color="#FF4E62"/>
</linearGradient>
</defs>
</svg>
