<svg width="300" height="300" viewBox="0 0 300 300" fill="none" xmlns="http://www.w3.org/2000/svg">
<path d="M0 236.999L55.426 96.7677C63.2367 77.0062 82.499 63.9999 103.955 63.9999H137.371L81.9447 204.232C74.1341 223.993 54.8717 236.999 33.4156 236.999H0Z" fill="url(#paint0_linear_1_143)"/>
<path d="M81.3123 237L136.738 96.7681C144.549 77.0066 163.811 64.0003 185.267 64.0003H218.683L163.257 204.232C155.446 223.994 136.184 237 114.728 237H81.3123Z" fill="url(#paint1_linear_1_143)"/>
<path d="M162.629 237L218.055 96.7681C225.866 77.0066 245.128 64.0003 266.584 64.0003H300L244.574 204.232C236.763 223.994 217.501 237 196.045 237H162.629Z" fill="url(#paint2_linear_1_143)"/>
<g filter="url(#filter0_d_1_143)">
<rect x="180" y="176" width="100" height="100" rx="20" fill="white"/>
</g>
<path d="M229.649 183.501C226.131 183.517 222.772 183.816 219.816 184.34C211.107 185.878 209.527 189.098 209.527 195.037V202.88H230.105V205.494H201.804C195.824 205.494 190.587 209.088 188.949 215.928C187.059 223.766 186.976 228.657 188.949 236.841C190.411 242.934 193.905 247.274 199.886 247.274H206.961V237.872C206.961 231.08 212.837 225.089 219.816 225.089H240.371C246.092 225.089 250.659 220.377 250.659 214.632V195.038C250.659 189.461 245.954 185.271 240.371 184.341C236.834 183.752 233.166 183.485 229.649 183.501V183.501ZM218.521 189.808C220.646 189.808 222.382 191.572 222.382 193.742C222.382 195.903 220.646 197.651 218.521 197.651C216.387 197.651 214.66 195.903 214.66 193.742C214.659 191.572 216.387 189.808 218.521 189.808V189.808Z" fill="url(#paint3_linear_1_143)"/>
<path d="M253.225 205.494V214.632C253.225 221.716 247.218 227.678 240.37 227.678H219.816C214.186 227.678 209.528 232.497 209.528 238.136V257.732C209.528 263.307 214.376 266.588 219.816 268.187C226.329 270.102 232.576 270.448 240.37 268.187C245.55 266.687 250.658 263.668 250.658 257.732V249.888H230.105V247.273H260.948C266.928 247.273 269.158 243.102 271.238 236.841C273.387 230.395 273.294 224.196 271.238 215.927C269.76 209.973 266.938 205.493 260.948 205.493H253.225V205.494ZM241.664 255.117C243.798 255.117 245.526 256.864 245.526 259.027C245.526 261.195 243.798 262.959 241.664 262.959C239.539 262.959 237.803 261.195 237.803 259.027C237.803 256.864 239.539 255.117 241.664 255.117Z" fill="url(#paint4_linear_1_143)"/>
<defs>
<filter id="filter0_d_1_143" x="176" y="172" width="108" height="108" filterUnits="userSpaceOnUse" color-interpolation-filters="sRGB">
<feFlood flood-opacity="0" result="BackgroundImageFix"/>
<feColorMatrix in="SourceAlpha" type="matrix" values="0 0 0 0 0 0 0 0 0 0 0 0 0 0 0 0 0 0 127 0" result="hardAlpha"/>
<feOffset/>
<feGaussianBlur stdDeviation="2"/>
<feColorMatrix type="matrix" values="0 0 0 0 0 0 0 0 0 0 0 0 0 0 0 0 0 0 0.25 0"/>
<feBlend mode="normal" in2="BackgroundImageFix" result="effect1_dropShadow_1_143"/>
<feBlend mode="normal" in="SourceGraphic" in2="effect1_dropShadow_1_143" result="shape"/>
</filter>
<linearGradient id="paint0_linear_1_143" x1="300.001" y1="50.7857" x2="1.63474" y2="221.244" gradientUnits="userSpaceOnUse">
<stop stop-color="#FF5CAA"/>
<stop offset="1" stop-color="#FF4E62"/>
</linearGradient>
<linearGradient id="paint1_linear_1_143" x1="300.001" y1="50.7857" x2="1.63474" y2="221.244" gradientUnits="userSpaceOnUse">
<stop stop-color="#FF5CAA"/>
<stop offset="1" stop-color="#FF4E62"/>
</linearGradient>
<linearGradient id="paint2_linear_1_143" x1="300.001" y1="50.7857" x2="1.63474" y2="221.244" gradientUnits="userSpaceOnUse">
<stop stop-color="#FF5CAA"/>
<stop offset="1" stop-color="#FF4E62"/>
</linearGradient>
<linearGradient id="paint3_linear_1_143" x1="185.437" y1="185.953" x2="232.899" y2="226.428" gradientUnits="userSpaceOnUse">
<stop stop-color="#5A9FD4"/>
<stop offset="1" stop-color="#306998"/>
</linearGradient>
<linearGradient id="paint4_linear_1_143" x1="250.756" y1="251.588" x2="233.735" y2="227.719" gradientUnits="userSpaceOnUse">
<stop stop-color="#FFD43B"/>
<stop offset="1" stop-color="#FFE873"/>
</linearGradient>
</defs>
</svg>
