<svg width="300" height="300" viewBox="0 0 300 300" fill="none" xmlns="http://www.w3.org/2000/svg">
<path d="M223.929 57.1383L165.133 32.1811C123.262 14.408 74.9114 33.943 57.1382 75.8139L32.181 134.61C14.4079 176.48 33.9429 224.831 75.8138 242.604L134.609 267.562C176.48 285.335 224.831 265.8 242.604 223.929L267.562 165.133C285.335 123.262 265.8 74.9115 223.929 57.1383Z" fill="url(#paint0_linear)"/>
<path fill-rule="evenodd" clip-rule="evenodd" d="M92.414 57.5303L123.264 44.4354C150.152 33.0221 162.786 31.3265 176.174 32.5303C189.561 33.7341 201.759 38.6622 212.225 47.0962C222.692 55.5301 230.602 65.5262 242.016 92.4143L255.111 123.264C266.524 150.152 268.22 162.786 267.016 176.174C265.812 189.562 260.884 201.759 252.45 212.226C244.016 222.692 234.02 230.603 207.132 242.016L176.282 255.111C149.394 266.524 136.76 268.22 123.372 267.016C109.984 265.812 97.7868 260.884 87.3203 252.45C76.8538 244.016 68.9434 234.02 57.53 207.132L44.4351 176.282C33.0218 149.394 31.3262 136.76 32.53 123.372C33.7338 109.985 38.662 97.7871 47.0959 87.3206C55.5298 76.8541 65.5259 68.9437 92.414 57.5303Z" fill="url(#paint1_linear)"/>
<path fill-rule="evenodd" clip-rule="evenodd" d="M182.849 108.831C201.844 108.831 215.927 122.75 215.927 145.349V190.709H189.235V149.606C189.235 138.307 183.831 132.903 174.988 132.903C170.895 132.903 166.801 134.705 162.871 139.454C163.034 141.419 163.198 143.384 163.198 145.349V190.709H136.67V149.606C136.67 138.307 131.102 132.903 122.423 132.903C118.329 132.903 114.399 134.868 110.469 139.945V190.709H83.9404V111.288H110.469V116.036C115.873 111.451 121.44 108.831 130.283 108.831C140.272 108.831 148.788 112.598 154.683 119.475C163.034 112.106 171.058 108.831 182.849 108.831Z" fill="white"/>
<g filter="url(#filter0_d)">
<path d="M175 175H280.184V280.185H175V175Z" fill="#F0DB4F"/>
</g>
<path d="M271.575 255.098C270.805 250.299 267.676 246.269 258.407 242.51C255.187 241.031 251.598 239.971 250.528 237.531C250.149 236.111 250.098 235.311 250.338 234.452C251.028 231.662 254.358 230.792 256.997 231.592C258.697 232.162 260.306 233.472 261.277 235.562C265.816 232.623 265.806 232.642 268.976 230.622C267.815 228.823 267.196 227.993 266.437 227.223C263.707 224.174 259.987 222.604 254.038 222.724L250.939 223.124C247.97 223.875 245.14 225.433 243.48 227.523C238.501 233.173 239.921 243.061 245.98 247.13C251.949 251.61 260.718 252.629 261.838 256.819C262.928 261.948 258.069 263.608 253.239 263.018C249.68 262.278 247.7 260.469 245.56 257.179C241.621 259.459 241.621 259.459 237.571 261.788C238.531 263.888 239.541 264.838 241.15 266.657C248.77 274.386 267.836 274.006 271.256 262.308C271.395 261.906 272.316 259.228 271.575 255.098ZM232.181 223.343H222.343L222.302 248.779C222.302 254.188 222.582 259.147 221.702 260.667C220.263 263.657 216.533 263.286 214.833 262.706C213.103 261.856 212.224 260.647 211.204 258.938C210.925 258.447 210.715 258.067 210.644 258.038L202.645 262.937C203.975 265.667 205.935 268.036 208.444 269.575C212.193 271.825 217.232 272.515 222.502 271.305C225.932 270.306 228.891 268.237 230.441 265.087C232.681 260.957 232.2 255.958 232.18 250.43C232.231 241.41 232.181 232.391 232.181 223.343Z" fill="#323330"/>
<defs>
<filter id="filter0_d" x="171" y="171" width="113.184" height="113.185" filterUnits="userSpaceOnUse" color-interpolation-filters="sRGB">
<feFlood flood-opacity="0" result="BackgroundImageFix"/>
<feColorMatrix in="SourceAlpha" type="matrix" values="0 0 0 0 0 0 0 0 0 0 0 0 0 0 0 0 0 0 127 0"/>
<feOffset/>
<feGaussianBlur stdDeviation="2"/>
<feColorMatrix type="matrix" values="0 0 0 0 0 0 0 0 0 0 0 0 0 0 0 0 0 0 0.25 0"/>
<feBlend mode="normal" in2="BackgroundImageFix" result="effect1_dropShadow"/>
<feBlend mode="normal" in="SourceGraphic" in2="effect1_dropShadow" result="shape"/>
</filter>
<linearGradient id="paint0_linear" x1="101.746" y1="5.27474" x2="210.423" y2="299.743" gradientUnits="userSpaceOnUse">
<stop stop-color="#E41359"/>
<stop offset="1" stop-color="#F23C79"/>
</linearGradient>
<linearGradient id="paint1_linear" x1="107.839" y1="50.9829" x2="191.707" y2="248.563" gradientUnits="userSpaceOnUse">
<stop stop-color="#24222F"/>
<stop offset="1" stop-color="#2B2937"/>
</linearGradient>
</defs>
</svg>
