<svg width="300" height="300" viewBox="0 0 300 300" fill="none" xmlns="http://www.w3.org/2000/svg">
<path d="M0 236.999L55.426 96.7677C63.2367 77.0062 82.499 63.9999 103.955 63.9999H137.371L81.9447 204.232C74.1341 223.993 54.8717 236.999 33.4156 236.999H0Z" fill="url(#paint0_linear_1_535)"/>
<path d="M81.3123 237L136.738 96.7681C144.549 77.0066 163.811 64.0003 185.267 64.0003H218.683L163.257 204.232C155.446 223.994 136.184 237 114.728 237H81.3123Z" fill="url(#paint1_linear_1_535)"/>
<path d="M162.629 237L218.055 96.7681C225.866 77.0066 245.128 64.0003 266.584 64.0003H300L244.574 204.232C236.763 223.994 217.501 237 196.045 237H162.629Z" fill="url(#paint2_linear_1_535)"/>
<g filter="url(#filter0_d_1_535)">
<rect x="180" y="180" width="100" height="100" rx="20" fill="white"/>
</g>
<path d="M215.582 213.424L211.444 209.284L211.46 239.187L211.51 240.583C211.53 241.243 211.655 241.983 211.855 242.753L244.63 254.313L252.83 250.683L252.837 250.671L215.58 213.424H215.582Z" fill="#00C4B3"/>
<path d="M211.856 242.753H211.859C211.856 242.741 211.851 242.727 211.845 242.713C211.852 242.728 211.852 242.743 211.855 242.753H211.856ZM252.822 250.683L244.622 254.313L211.852 242.753C212.477 245.157 213.864 247.859 215.354 249.333L226.044 259.97L249.832 260L252.812 250.683H252.822Z" fill="#22D3C5"/>
<path d="M211.556 209.285L198.813 228.53C197.755 229.66 198.283 231.992 199.986 233.71L207.342 241.126L211.966 242.756C211.766 241.988 211.64 241.256 211.621 240.586L211.571 239.19L211.556 209.287V209.285Z" fill="#0075C9"/>
<path d="M244.9 209.67C244.13 209.475 243.392 209.352 242.727 209.333L241.249 209.279L211.444 209.286L252.836 250.672L256.472 242.472L244.902 209.672L244.9 209.67Z" fill="#0075C9"/>
<path d="M244.862 209.663C244.875 209.668 244.889 209.671 244.9 209.673V209.669C244.887 209.666 244.875 209.666 244.862 209.661V209.663ZM251.477 213.181C249.972 211.666 247.307 210.281 244.9 209.673L256.47 242.47L252.83 250.67L261.712 247.832L261.732 223.48L251.476 213.18L251.477 213.181Z" fill="#00A8E1"/>
<path d="M243.278 205.075L235.878 197.715C234.152 196.018 231.82 195.488 230.7 196.544L211.456 209.284L241.261 209.277L242.739 209.331C243.404 209.351 244.143 209.473 244.912 209.668L243.28 205.073L243.278 205.075Z" fill="#00C4B3"/>
<defs>
<filter id="filter0_d_1_535" x="176" y="176" width="108" height="108" filterUnits="userSpaceOnUse" color-interpolation-filters="sRGB">
<feFlood flood-opacity="0" result="BackgroundImageFix"/>
<feColorMatrix in="SourceAlpha" type="matrix" values="0 0 0 0 0 0 0 0 0 0 0 0 0 0 0 0 0 0 127 0" result="hardAlpha"/>
<feOffset/>
<feGaussianBlur stdDeviation="2"/>
<feColorMatrix type="matrix" values="0 0 0 0 0 0 0 0 0 0 0 0 0 0 0 0 0 0 0.25 0"/>
<feBlend mode="normal" in2="BackgroundImageFix" result="effect1_dropShadow_1_535"/>
<feBlend mode="normal" in="SourceGraphic" in2="effect1_dropShadow_1_535" result="shape"/>
</filter>
<linearGradient id="paint0_linear_1_535" x1="300.001" y1="50.7857" x2="1.63474" y2="221.244" gradientUnits="userSpaceOnUse">
<stop stop-color="#FF5CAA"/>
<stop offset="1" stop-color="#FF4E62"/>
</linearGradient>
<linearGradient id="paint1_linear_1_535" x1="300.001" y1="50.7857" x2="1.63474" y2="221.244" gradientUnits="userSpaceOnUse">
<stop stop-color="#FF5CAA"/>
<stop offset="1" stop-color="#FF4E62"/>
</linearGradient>
<linearGradient id="paint2_linear_1_535" x1="300.001" y1="50.7857" x2="1.63474" y2="221.244" gradientUnits="userSpaceOnUse">
<stop stop-color="#FF5CAA"/>
<stop offset="1" stop-color="#FF4E62"/>
</linearGradient>
</defs>
</svg>
