<svg width="300" height="300" viewBox="0 0 300 300" fill="none" xmlns="http://www.w3.org/2000/svg">
<path d="M223.929 57.1383L165.133 32.1811C123.262 14.408 74.9114 33.943 57.1382 75.8139L32.181 134.61C14.4079 176.48 33.9429 224.831 75.8138 242.604L134.609 267.562C176.48 285.335 224.831 265.8 242.604 223.929L267.562 165.133C285.335 123.262 265.8 74.9115 223.929 57.1383Z" fill="url(#paint0_linear)"/>
<path fill-rule="evenodd" clip-rule="evenodd" d="M92.414 57.5303L123.264 44.4354C150.152 33.0221 162.786 31.3265 176.174 32.5303C189.561 33.7341 201.759 38.6622 212.225 47.0962C222.692 55.5301 230.602 65.5262 242.016 92.4143L255.111 123.264C266.524 150.152 268.22 162.786 267.016 176.174C265.812 189.562 260.884 201.759 252.45 212.226C244.016 222.692 234.02 230.603 207.132 242.016L176.282 255.111C149.394 266.524 136.76 268.22 123.372 267.016C109.984 265.812 97.7868 260.884 87.3203 252.45C76.8538 244.016 68.9434 234.02 57.53 207.132L44.4351 176.282C33.0218 149.394 31.3262 136.76 32.53 123.372C33.7338 109.985 38.662 97.7871 47.0959 87.3206C55.5298 76.8541 65.5259 68.9437 92.414 57.5303Z" fill="url(#paint1_linear)"/>
<path fill-rule="evenodd" clip-rule="evenodd" d="M182.849 108.831C201.844 108.831 215.927 122.75 215.927 145.349V190.709H189.235V149.606C189.235 138.307 183.831 132.903 174.988 132.903C170.895 132.903 166.801 134.705 162.871 139.454C163.034 141.419 163.198 143.384 163.198 145.349V190.709H136.67V149.606C136.67 138.307 131.102 132.903 122.423 132.903C118.329 132.903 114.399 134.868 110.469 139.945V190.709H83.9404V111.288H110.469V116.036C115.873 111.451 121.44 108.831 130.283 108.831C140.272 108.831 148.788 112.598 154.683 119.475C163.034 112.106 171.058 108.831 182.849 108.831Z" fill="white"/>
<g filter="url(#filter0_d)">
<rect x="180" y="176" width="100" height="100" rx="20" fill="white"/>
</g>
<path d="M229.649 183.501C226.131 183.517 222.772 183.816 219.816 184.34C211.107 185.878 209.527 189.098 209.527 195.037V202.88H230.105V205.494H201.804C195.824 205.494 190.587 209.088 188.949 215.928C187.059 223.766 186.976 228.657 188.949 236.841C190.411 242.934 193.905 247.274 199.886 247.274H206.961V237.872C206.961 231.08 212.837 225.089 219.816 225.089H240.371C246.092 225.089 250.659 220.377 250.659 214.632V195.038C250.659 189.461 245.954 185.271 240.371 184.341C236.834 183.752 233.166 183.485 229.649 183.501ZM218.521 189.808C220.646 189.808 222.382 191.572 222.382 193.742C222.382 195.903 220.646 197.651 218.521 197.651C216.387 197.651 214.66 195.903 214.66 193.742C214.659 191.572 216.387 189.808 218.521 189.808Z" fill="url(#paint2_linear)"/>
<path d="M253.225 205.494V214.632C253.225 221.716 247.218 227.678 240.37 227.678H219.816C214.186 227.678 209.528 232.497 209.528 238.136V257.732C209.528 263.307 214.376 266.588 219.816 268.187C226.329 270.102 232.576 270.448 240.37 268.187C245.55 266.687 250.658 263.668 250.658 257.732V249.888H230.105V247.273H260.948C266.928 247.273 269.158 243.102 271.238 236.841C273.387 230.395 273.294 224.196 271.238 215.927C269.76 209.973 266.938 205.493 260.948 205.493H253.225V205.494ZM241.664 255.117C243.798 255.117 245.526 256.864 245.526 259.027C245.526 261.195 243.798 262.959 241.664 262.959C239.539 262.959 237.803 261.195 237.803 259.027C237.803 256.864 239.539 255.117 241.664 255.117Z" fill="url(#paint3_linear)"/>
<defs>
<filter id="filter0_d" x="176" y="172" width="108" height="108" filterUnits="userSpaceOnUse" color-interpolation-filters="sRGB">
<feFlood flood-opacity="0" result="BackgroundImageFix"/>
<feColorMatrix in="SourceAlpha" type="matrix" values="0 0 0 0 0 0 0 0 0 0 0 0 0 0 0 0 0 0 127 0"/>
<feOffset/>
<feGaussianBlur stdDeviation="2"/>
<feColorMatrix type="matrix" values="0 0 0 0 0 0 0 0 0 0 0 0 0 0 0 0 0 0 0.25 0"/>
<feBlend mode="normal" in2="BackgroundImageFix" result="effect1_dropShadow"/>
<feBlend mode="normal" in="SourceGraphic" in2="effect1_dropShadow" result="shape"/>
</filter>
<linearGradient id="paint0_linear" x1="101.746" y1="5.27474" x2="210.423" y2="299.743" gradientUnits="userSpaceOnUse">
<stop stop-color="#E41359"/>
<stop offset="1" stop-color="#F23C79"/>
</linearGradient>
<linearGradient id="paint1_linear" x1="107.839" y1="50.9829" x2="191.707" y2="248.563" gradientUnits="userSpaceOnUse">
<stop stop-color="#24222F"/>
<stop offset="1" stop-color="#2B2937"/>
</linearGradient>
<linearGradient id="paint2_linear" x1="185.437" y1="185.953" x2="232.899" y2="226.428" gradientUnits="userSpaceOnUse">
<stop stop-color="#5A9FD4"/>
<stop offset="1" stop-color="#306998"/>
</linearGradient>
<linearGradient id="paint3_linear" x1="250.756" y1="251.588" x2="233.735" y2="227.719" gradientUnits="userSpaceOnUse">
<stop stop-color="#FFD43B"/>
<stop offset="1" stop-color="#FFE873"/>
</linearGradient>
</defs>
</svg>
