<svg width="300" height="300" viewBox="0 0 300 300" fill="none" xmlns="http://www.w3.org/2000/svg">
<path d="M0 236.999L55.426 96.7677C63.2367 77.0062 82.499 63.9999 103.955 63.9999H137.371L81.9447 204.232C74.1341 223.993 54.8717 236.999 33.4156 236.999H0Z" fill="url(#paint0_linear_1_523)"/>
<path d="M81.3123 237L136.738 96.7681C144.549 77.0066 163.811 64.0003 185.267 64.0003H218.683L163.257 204.232C155.446 223.994 136.184 237 114.728 237H81.3123Z" fill="url(#paint1_linear_1_523)"/>
<path d="M162.629 237L218.055 96.7681C225.866 77.0066 245.128 64.0003 266.584 64.0003H300L244.574 204.232C236.763 223.994 217.501 237 196.045 237H162.629Z" fill="url(#paint2_linear_1_523)"/>
<g filter="url(#filter0_d_1_523)">
<rect x="180" y="180" width="100" height="100" rx="20" fill="white"/>
</g>
<g clip-path="url(#clip0_1_523)">
<path fill-rule="evenodd" clip-rule="evenodd" d="M229.26 260.776L214.99 255.656V234.746L229.26 239.606V260.776ZM231.86 260.776L246.13 255.656V234.746L231.86 239.61V260.776ZM216.46 233.176L230.86 229.11L244.252 233.43L230.86 237.976L216.46 233.176ZM212.276 231.576L198 226.44V205.5L212.27 210.36L212.276 231.576ZM214.89 231.576L229.16 226.456V205.5L214.886 210.384L214.89 231.576ZM199.49 203.976L213.89 199.89L227.282 204.21L213.89 208.756L199.49 203.976ZM245.594 231.576L231.324 226.456V205.5L245.594 210.36V231.576ZM248.194 231.576L262.464 226.456V205.5L248.194 210.36V231.576ZM232.794 203.976L247.194 199.91L260.586 204.23L247.194 208.776L232.794 203.976Z" fill="#FF9900"/>
</g>
<defs>
<filter id="filter0_d_1_523" x="176" y="176" width="108" height="108" filterUnits="userSpaceOnUse" color-interpolation-filters="sRGB">
<feFlood flood-opacity="0" result="BackgroundImageFix"/>
<feColorMatrix in="SourceAlpha" type="matrix" values="0 0 0 0 0 0 0 0 0 0 0 0 0 0 0 0 0 0 127 0" result="hardAlpha"/>
<feOffset/>
<feGaussianBlur stdDeviation="2"/>
<feColorMatrix type="matrix" values="0 0 0 0 0 0 0 0 0 0 0 0 0 0 0 0 0 0 0.25 0"/>
<feBlend mode="normal" in2="BackgroundImageFix" result="effect1_dropShadow_1_523"/>
<feBlend mode="normal" in="SourceGraphic" in2="effect1_dropShadow_1_523" result="shape"/>
</filter>
<linearGradient id="paint0_linear_1_523" x1="300.001" y1="50.7857" x2="1.63474" y2="221.244" gradientUnits="userSpaceOnUse">
<stop stop-color="#FF5CAA"/>
<stop offset="1" stop-color="#FF4E62"/>
</linearGradient>
<linearGradient id="paint1_linear_1_523" x1="300.001" y1="50.7857" x2="1.63474" y2="221.244" gradientUnits="userSpaceOnUse">
<stop stop-color="#FF5CAA"/>
<stop offset="1" stop-color="#FF4E62"/>
</linearGradient>
<linearGradient id="paint2_linear_1_523" x1="300.001" y1="50.7857" x2="1.63474" y2="221.244" gradientUnits="userSpaceOnUse">
<stop stop-color="#FF5CAA"/>
<stop offset="1" stop-color="#FF4E62"/>
</linearGradient>
<clipPath id="clip0_1_523">
<rect width="64" height="64" fill="white" transform="translate(198 198)"/>
</clipPath>
</defs>
</svg>
