<svg width="300" height="300" viewBox="0 0 300 300" fill="none" xmlns="http://www.w3.org/2000/svg">
<path d="M0 236.999L55.426 96.7677C63.2367 77.0062 82.499 63.9999 103.955 63.9999H137.371L81.9447 204.232C74.1341 223.993 54.8717 236.999 33.4156 236.999H0Z" fill="url(#paint0_linear_1_223)"/>
<path d="M81.3123 237L136.738 96.7681C144.549 77.0066 163.811 64.0003 185.267 64.0003H218.683L163.257 204.232C155.446 223.994 136.184 237 114.728 237H81.3123Z" fill="url(#paint1_linear_1_223)"/>
<path d="M162.629 237L218.055 96.7681C225.866 77.0066 245.128 64.0003 266.584 64.0003H300L244.574 204.232C236.763 223.994 217.501 237 196.045 237H162.629Z" fill="url(#paint2_linear_1_223)"/>
<g filter="url(#filter0_d_1_223)">
<rect x="180.627" y="179.626" width="100" height="100" rx="20" fill="white"/>
</g>
<path d="M193.293 225.618C193.121 225.618 193.078 225.532 193.164 225.403L194.067 224.242C194.154 224.113 194.369 224.026 194.541 224.026H209.894C210.066 224.026 210.109 224.156 210.023 224.285L209.291 225.403C209.205 225.532 208.99 225.661 208.861 225.661L193.293 225.618Z" fill="#00ACD7"/>
<path d="M186.799 229.574C186.627 229.574 186.584 229.488 186.67 229.359L187.574 228.198C187.66 228.069 187.875 227.983 188.047 227.983H207.657C207.829 227.983 207.915 228.112 207.872 228.241L207.528 229.273C207.485 229.445 207.313 229.531 207.141 229.531L186.799 229.574Z" fill="#00ACD7"/>
<path d="M197.207 233.531C197.035 233.531 196.992 233.402 197.078 233.273L197.68 232.197C197.766 232.068 197.938 231.939 198.11 231.939H206.711C206.883 231.939 206.969 232.068 206.969 232.24L206.883 233.273C206.883 233.445 206.711 233.574 206.582 233.574L197.207 233.531Z" fill="#00ACD7"/>
<path d="M241.847 224.844C239.137 225.532 237.288 226.048 234.622 226.736C233.977 226.908 233.934 226.951 233.374 226.306C232.729 225.575 232.256 225.102 231.353 224.672C228.644 223.338 226.02 223.725 223.569 225.317C220.645 227.209 219.14 230.004 219.183 233.488C219.226 236.928 221.591 239.766 224.988 240.24C227.913 240.627 230.364 239.594 232.299 237.401C232.686 236.928 233.03 236.412 233.46 235.81C231.912 235.81 229.977 235.81 225.16 235.81C224.257 235.81 224.042 235.251 224.343 234.52C224.902 233.187 225.934 230.95 226.537 229.832C226.666 229.574 226.967 229.144 227.612 229.144C229.805 229.144 237.89 229.144 243.266 229.144C243.18 230.305 243.18 231.466 243.008 232.628C242.535 235.724 241.373 238.562 239.481 241.057C236.385 245.142 232.342 247.679 227.225 248.368C223.01 248.927 219.097 248.11 215.656 245.529C212.474 243.121 210.668 239.938 210.194 235.982C209.635 231.294 211.012 227.08 213.85 223.381C216.903 219.382 220.946 216.845 225.891 215.941C229.934 215.21 233.804 215.683 237.288 218.049C239.567 219.554 241.201 221.618 242.277 224.112C242.535 224.5 242.363 224.715 241.847 224.844Z" fill="#00ACD7"/>
<path d="M256.081 248.626C252.168 248.54 248.598 247.421 245.588 244.841C243.051 242.648 241.459 239.852 240.943 236.541C240.169 231.681 241.502 227.381 244.427 223.553C247.566 219.425 251.351 217.275 256.468 216.371C260.855 215.597 264.983 216.027 268.725 218.565C272.122 220.887 274.23 224.026 274.789 228.155C275.52 233.961 273.843 238.691 269.843 242.734C267.005 245.615 263.521 247.421 259.522 248.239C258.361 248.454 257.199 248.497 256.081 248.626ZM266.317 231.251C266.274 230.692 266.274 230.262 266.188 229.832C265.414 225.575 261.5 223.166 257.415 224.112C253.415 225.016 250.835 227.553 249.889 231.595C249.114 234.95 250.749 238.347 253.845 239.723C256.21 240.756 258.576 240.627 260.855 239.465C264.252 237.702 266.102 234.95 266.317 231.251Z" fill="#00ACD7"/>
<defs>
<filter id="filter0_d_1_223" x="176.627" y="175.626" width="108" height="108" filterUnits="userSpaceOnUse" color-interpolation-filters="sRGB">
<feFlood flood-opacity="0" result="BackgroundImageFix"/>
<feColorMatrix in="SourceAlpha" type="matrix" values="0 0 0 0 0 0 0 0 0 0 0 0 0 0 0 0 0 0 127 0" result="hardAlpha"/>
<feOffset/>
<feGaussianBlur stdDeviation="2"/>
<feColorMatrix type="matrix" values="0 0 0 0 0 0 0 0 0 0 0 0 0 0 0 0 0 0 0.25 0"/>
<feBlend mode="normal" in2="BackgroundImageFix" result="effect1_dropShadow_1_223"/>
<feBlend mode="normal" in="SourceGraphic" in2="effect1_dropShadow_1_223" result="shape"/>
</filter>
<linearGradient id="paint0_linear_1_223" x1="300.001" y1="50.7857" x2="1.63474" y2="221.244" gradientUnits="userSpaceOnUse">
<stop stop-color="#FF5CAA"/>
<stop offset="1" stop-color="#FF4E62"/>
</linearGradient>
<linearGradient id="paint1_linear_1_223" x1="300.001" y1="50.7857" x2="1.63474" y2="221.244" gradientUnits="userSpaceOnUse">
<stop stop-color="#FF5CAA"/>
<stop offset="1" stop-color="#FF4E62"/>
</linearGradient>
<linearGradient id="paint2_linear_1_223" x1="300.001" y1="50.7857" x2="1.63474" y2="221.244" gradientUnits="userSpaceOnUse">
<stop stop-color="#FF5CAA"/>
<stop offset="1" stop-color="#FF4E62"/>
</linearGradient>
</defs>
</svg>
