<svg width="300" height="300" viewBox="0 0 300 300" fill="none" xmlns="http://www.w3.org/2000/svg">
<path d="M223.929 57.1383L165.133 32.1811C123.262 14.408 74.9114 33.943 57.1382 75.8139L32.181 134.61C14.4079 176.48 33.9429 224.831 75.8138 242.604L134.609 267.562C176.48 285.335 224.831 265.8 242.604 223.929L267.562 165.133C285.335 123.262 265.8 74.9115 223.929 57.1383Z" fill="url(#paint0_linear)"/>
<path fill-rule="evenodd" clip-rule="evenodd" d="M92.414 57.5303L123.264 44.4354C150.152 33.0221 162.786 31.3265 176.174 32.5303C189.561 33.7341 201.759 38.6622 212.225 47.0962C222.692 55.5301 230.602 65.5262 242.016 92.4143L255.111 123.264C266.524 150.152 268.22 162.786 267.016 176.174C265.812 189.562 260.884 201.759 252.45 212.226C244.016 222.692 234.02 230.603 207.132 242.016L176.282 255.111C149.394 266.524 136.76 268.22 123.372 267.016C109.984 265.812 97.7868 260.884 87.3203 252.45C76.8538 244.016 68.9434 234.02 57.53 207.132L44.4351 176.282C33.0218 149.394 31.3262 136.76 32.53 123.372C33.7338 109.985 38.662 97.7871 47.0959 87.3206C55.5298 76.8541 65.5259 68.9437 92.414 57.5303Z" fill="url(#paint1_linear)"/>
<path fill-rule="evenodd" clip-rule="evenodd" d="M182.849 108.831C201.844 108.831 215.927 122.75 215.927 145.349V190.709H189.235V149.606C189.235 138.307 183.831 132.903 174.988 132.903C170.895 132.903 166.801 134.705 162.871 139.454C163.034 141.419 163.198 143.384 163.198 145.349V190.709H136.67V149.606C136.67 138.307 131.102 132.903 122.423 132.903C118.329 132.903 114.399 134.868 110.469 139.945V190.709H83.9404V111.288H110.469V116.036C115.873 111.451 121.44 108.831 130.283 108.831C140.272 108.831 148.788 112.598 154.683 119.475C163.034 112.106 171.058 108.831 182.849 108.831Z" fill="white"/>
<g filter="url(#filter0_d)">
<rect x="180" y="180" width="100" height="100" rx="20" fill="white"/>
</g>
<g clip-path="url(#clip0)">
<path d="M229.8 198.952C229.228 198.986 228.668 199.134 228.154 199.388L205.864 210.02C204.7 210.574 203.854 211.628 203.564 212.884L198.108 236.746C197.848 237.866 198.058 239.04 198.708 240C198.784 240.116 198.864 240.228 198.948 240.336L214.348 259.484C215.162 260.484 216.384 261.058 217.672 261.052H242.372C243.664 261.054 244.888 260.452 245.7 259.466L261.092 240.314C261.9 239.314 262.202 237.994 261.892 236.742L256.4 212.86C256.11 211.604 255.26 210.55 254.1 209.996L231.846 199.39C231.205 199.074 230.494 198.923 229.78 198.952H229.8Z" fill="#326CE5"/>
<path d="M230.004 207.084C229.236 207.138 228.654 207.796 228.694 208.564V208.94C228.73 209.366 228.794 209.788 228.878 210.206C229.001 211.006 229.045 211.817 229.01 212.626C228.934 212.892 228.782 213.132 228.574 213.316L228.544 213.88C227.734 213.948 226.93 214.072 226.138 214.252C222.806 215.004 219.772 216.732 217.43 219.222L216.95 218.882C216.686 218.962 216.402 218.932 216.16 218.802C215.511 218.322 214.91 217.779 214.366 217.182C214.093 216.855 213.801 216.545 213.492 216.252L213.196 216.016C212.932 215.804 212.608 215.682 212.27 215.666C212.068 215.655 211.867 215.692 211.682 215.775C211.498 215.857 211.335 215.981 211.208 216.138C210.756 216.772 210.904 217.65 211.536 218.104L211.812 218.324C212.167 218.56 212.536 218.776 212.916 218.97C213.624 219.364 214.292 219.826 214.912 220.37C215.07 220.596 215.163 220.862 215.178 221.138L215.614 221.538C213.26 225.07 212.294 229.348 212.898 233.55L212.338 233.71C212.192 233.942 211.998 234.14 211.766 234.286C210.985 234.495 210.185 234.627 209.378 234.68C208.95 234.689 208.522 234.722 208.098 234.78L207.744 234.86H207.704C207.458 234.894 207.227 234.996 207.036 235.153C206.844 235.311 206.7 235.519 206.62 235.754C206.54 235.988 206.526 236.241 206.581 236.483C206.636 236.725 206.757 236.947 206.93 237.124C207.105 237.3 207.326 237.425 207.567 237.483C207.809 237.541 208.062 237.531 208.298 237.454H208.324L208.684 237.414C209.09 237.294 209.49 237.146 209.88 236.978C210.63 236.678 211.408 236.448 212.204 236.298C212.48 236.314 212.744 236.408 212.968 236.568L213.568 236.468C214.868 240.502 217.6 243.92 221.248 246.074L221.004 246.584C221.116 246.818 221.158 247.078 221.124 247.336C220.794 248.1 220.39 248.832 219.918 249.52C219.659 249.861 219.42 250.217 219.202 250.586L219.032 250.946C218.909 251.16 218.847 251.404 218.853 251.651C218.86 251.898 218.934 252.138 219.069 252.345C219.203 252.552 219.393 252.718 219.615 252.824C219.838 252.931 220.086 252.974 220.332 252.948C220.578 252.92 220.812 252.825 221.007 252.672C221.202 252.52 221.351 252.316 221.438 252.084L221.604 251.744C221.756 251.344 221.884 250.936 221.988 250.524C222.342 249.65 222.534 248.712 223.018 248.132C223.176 247.983 223.375 247.886 223.59 247.852L223.89 247.306C227.844 248.826 232.22 248.837 236.182 247.336L236.448 247.846C236.72 247.886 236.964 248.036 237.128 248.256C237.504 248.972 237.808 249.722 238.04 250.496C238.146 250.91 238.275 251.318 238.428 251.718L238.594 252.058C238.681 252.289 238.831 252.492 239.026 252.643C239.221 252.795 239.455 252.89 239.701 252.917C239.946 252.944 240.195 252.902 240.418 252.797C240.642 252.692 240.832 252.527 240.968 252.32C241.102 252.112 241.176 251.871 241.182 251.624C241.188 251.376 241.125 251.132 241 250.918L240.826 250.558C240.608 250.19 240.369 249.836 240.11 249.496C239.65 248.832 239.254 248.124 238.91 247.382C238.878 247.246 238.873 247.106 238.897 246.968C238.92 246.831 238.971 246.699 239.046 246.582C238.961 246.408 238.886 246.228 238.824 246.044C242.464 243.874 245.184 240.444 246.47 236.404L247.038 236.504C247.242 236.318 247.51 236.22 247.784 236.228C248.578 236.38 249.356 236.628 250.108 236.908C250.498 237.088 250.898 237.24 251.304 237.368C251.4 237.394 251.54 237.416 251.648 237.442H251.674C251.91 237.518 252.163 237.527 252.404 237.469C252.645 237.41 252.864 237.285 253.039 237.109C253.213 236.932 253.335 236.711 253.391 236.469C253.447 236.228 253.435 235.975 253.356 235.74C253.275 235.505 253.131 235.297 252.938 235.14C252.746 234.982 252.514 234.881 252.268 234.848L251.88 234.756C251.456 234.698 251.028 234.665 250.6 234.656C249.792 234.604 248.992 234.472 248.212 234.262C247.972 234.128 247.772 233.928 247.636 233.686L247.096 233.526C247.672 229.326 246.685 225.061 244.324 221.54L244.796 221.104C244.776 220.83 244.866 220.558 245.044 220.348C245.658 219.82 246.324 219.354 247.024 218.956C247.404 218.762 247.773 218.546 248.128 218.31L248.42 218.074C248.635 217.941 248.808 217.749 248.918 217.521C249.029 217.294 249.073 217.04 249.045 216.788C249.017 216.537 248.919 216.298 248.761 216.1C248.603 215.902 248.393 215.753 248.154 215.67C247.915 215.587 247.658 215.573 247.411 215.63C247.165 215.687 246.94 215.812 246.762 215.992L246.466 216.228C246.157 216.521 245.865 216.832 245.592 217.158C245.064 217.762 244.48 218.312 243.846 218.804C243.59 218.908 243.31 218.939 243.038 218.892L242.532 219.252C239.612 216.192 235.678 214.292 231.462 213.912C231.462 213.712 231.436 213.412 231.432 213.318C231.206 213.162 231.048 212.924 230.996 212.654C230.968 211.846 231.019 211.038 231.148 210.24C231.234 209.82 231.294 209.4 231.332 208.974V208.574C231.372 207.806 230.792 207.148 230.022 207.094L230.004 207.084ZM228.336 217.416L227.936 224.402H227.906C227.886 224.834 227.632 225.202 227.242 225.41C226.852 225.618 226.39 225.556 226.042 225.302L220.312 221.242C222.136 219.451 224.424 218.204 226.918 217.644C227.386 217.544 227.858 217.468 228.332 217.416H228.336ZM231.672 217.416C234.682 217.79 237.484 219.142 239.652 221.264L233.976 225.298C233.626 225.578 233.146 225.634 232.74 225.442C232.334 225.25 232.074 224.842 232.068 224.394L231.672 217.416ZM218.232 223.87L223.472 228.546V228.576C223.798 228.86 223.94 229.302 223.844 229.724C223.748 230.146 223.424 230.48 223.01 230.594V230.614L216.286 232.548C215.953 229.519 216.639 226.465 218.234 223.868L218.232 223.87ZM241.738 223.87C243.33 226.46 244.034 229.498 243.742 232.524L237.008 230.584V230.558C236.588 230.444 236.268 230.11 236.174 229.688C236.08 229.266 236.22 228.828 236.546 228.54L241.746 223.886L241.738 223.87ZM228.93 228.91H231.074L232.384 230.574L231.908 232.654L229.982 233.58L228.052 232.654L227.598 230.574L228.93 228.91ZM235.798 234.586C235.888 234.576 235.998 234.576 236.068 234.586L243.002 235.756C242.002 238.636 240.028 241.096 237.452 242.742L234.772 236.254C234.698 236.08 234.667 235.891 234.682 235.702C234.697 235.514 234.757 235.332 234.856 235.171C234.956 235.011 235.093 234.876 235.255 234.78C235.418 234.683 235.601 234.627 235.79 234.616L235.798 234.586ZM224.152 234.616C224.544 234.622 224.906 234.824 225.12 235.152C225.334 235.48 225.368 235.892 225.214 236.252V236.278L222.55 242.714C220 241.08 218.064 238.65 217.034 235.8L223.908 234.634C223.984 234.626 224.062 234.626 224.14 234.634L224.152 234.616ZM229.96 237.416C230.178 237.409 230.395 237.463 230.584 237.572C230.774 237.681 230.93 237.84 231.034 238.032H231.06L234.448 244.146L233.094 244.546C230.602 245.116 228 244.982 225.578 244.158L228.978 238.044C229.184 237.684 229.564 237.464 229.978 237.454L229.96 237.416Z" fill="white" stroke="white" stroke-width="0.11"/>
</g>
<defs>
<filter id="filter0_d" x="176" y="176" width="108" height="108" filterUnits="userSpaceOnUse" color-interpolation-filters="sRGB">
<feFlood flood-opacity="0" result="BackgroundImageFix"/>
<feColorMatrix in="SourceAlpha" type="matrix" values="0 0 0 0 0 0 0 0 0 0 0 0 0 0 0 0 0 0 127 0"/>
<feOffset/>
<feGaussianBlur stdDeviation="2"/>
<feColorMatrix type="matrix" values="0 0 0 0 0 0 0 0 0 0 0 0 0 0 0 0 0 0 0.25 0"/>
<feBlend mode="normal" in2="BackgroundImageFix" result="effect1_dropShadow"/>
<feBlend mode="normal" in="SourceGraphic" in2="effect1_dropShadow" result="shape"/>
</filter>
<linearGradient id="paint0_linear" x1="101.746" y1="5.27474" x2="210.423" y2="299.743" gradientUnits="userSpaceOnUse">
<stop stop-color="#E41359"/>
<stop offset="1" stop-color="#F23C79"/>
</linearGradient>
<linearGradient id="paint1_linear" x1="107.839" y1="50.9829" x2="191.707" y2="248.563" gradientUnits="userSpaceOnUse">
<stop stop-color="#24222F"/>
<stop offset="1" stop-color="#2B2937"/>
</linearGradient>
<clipPath id="clip0">
<rect width="64" height="64" fill="white" transform="translate(198 198)"/>
</clipPath>
</defs>
</svg>
