<?xml version="1.0" encoding="UTF-8" standalone="no"?><!-- Generator: Gravit.io --><svg xmlns="http://www.w3.org/2000/svg" xmlns:xlink="http://www.w3.org/1999/xlink" style="isolation:isolate" viewBox="0 0 360 360" width="360pt" height="360pt"><defs><clipPath id="_clipPath_klo3L1qptpmHfsfLNzAoijaZF6Ql4Tvd"><rect width="360" height="360"/></clipPath></defs><g clip-path="url(#_clipPath_klo3L1qptpmHfsfLNzAoijaZF6Ql4Tvd)"><defs><linearGradient id="_lgradient_2" x1="-0.4409448991123343" y1="0.47047319322676495" x2="0.4999981772779469" y2="1.4704695477826593"><stop offset="0%" style="stop-color:#E41359"/><stop offset="100%" style="stop-color:#F23C79"/></linearGradient></defs><path d="M 198.31 38.767 L 268.865 68.716 C 319.076 90.03 342.537 148.099 321.224 198.31 L 291.275 268.865 C 269.962 319.077 211.893 342.538 161.681 321.225 L 91.126 291.276 C 40.915 269.962 17.453 211.893 38.767 161.682 L 68.716 91.127 C 90.029 40.915 148.098 17.454 198.31 38.767 Z" style="stroke:none;fill:url(#_lgradient_2);stroke-miterlimit:10;"/><linearGradient id="_lgradient_3" x1="-0.09585137682069893" y1="0.2592589958559022" x2="0.2592589958559022" y2="1.0958508094521653" gradientTransform="matrix(283.408,0,0,283.408,38.174,38.174)" gradientUnits="userSpaceOnUse"><stop offset="0%" stop-opacity="1" style="stop-color:rgb(36,34,47)"/><stop offset="100%" stop-opacity="1" style="stop-color:rgb(43,41,55)"/></linearGradient><path d=" M 61.33 230.199 C 46.222 194.608 38.669 176.813 38.208 160.329 C 37.529 136.025 47.018 112.539 64.389 95.528 C 76.172 83.99 93.967 76.437 129.557 61.33 C 165.147 46.222 182.943 38.669 199.427 38.208 C 223.731 37.529 247.217 47.018 264.228 64.389 C 275.766 76.172 283.319 93.967 298.426 129.557 C 313.534 165.147 321.087 182.943 321.548 199.427 C 322.227 223.731 312.738 247.217 295.367 264.228 C 283.584 275.766 265.789 283.319 230.199 298.426 C 194.608 313.534 176.813 321.087 160.329 321.548 C 136.025 322.227 112.539 312.738 95.528 295.367 C 83.99 283.584 76.437 265.789 61.33 230.199 Z " fill-rule="evenodd" fill="url(#_lgradient_3)"/><path d=" M 219.568 130.748 C 242.363 130.748 259.263 147.451 259.263 174.569 L 259.263 229.001 L 227.232 229.001 L 227.232 179.678 C 227.232 166.119 220.747 159.634 210.136 159.634 C 205.223 159.634 200.311 161.796 195.595 167.494 C 195.791 169.852 195.988 172.21 195.988 174.569 L 195.988 229.001 L 164.154 229.001 L 164.154 179.678 C 164.154 166.119 157.472 159.634 147.057 159.634 C 142.145 159.634 137.429 161.992 132.712 168.084 L 132.712 229.001 L 100.878 229.001 L 100.878 133.695 L 132.712 133.695 L 132.712 139.394 C 139.197 133.892 145.878 130.748 156.49 130.748 C 168.477 130.748 178.695 135.267 185.769 143.52 C 195.791 134.678 205.42 130.748 219.568 130.748 Z " fill-rule="evenodd" fill="rgb(255,255,255)"/><g><path d=" M 321.582 284.839 C 321.582 309.281 301.769 329.096 277.327 329.096 C 252.887 329.096 233.074 309.281 233.074 284.839 C 233.074 260.4 252.886 240.587 277.327 240.587 C 301.769 240.587 321.582 260.4 321.582 284.839 Z " fill="rgb(0,0,0)"/><path d=" M 296.677 256.961 C 292.182 257.115 288.257 259.597 285.335 263.021 C 282.1 266.781 279.951 271.236 278.399 275.789 C 275.626 273.514 273.488 270.572 269.037 269.292 C 265.597 268.303 261.986 268.71 258.664 271.185 C 257.092 272.36 256.007 274.135 255.491 275.808 C 254.156 280.147 256.894 284.012 258.138 285.396 L 260.858 288.309 C 261.417 288.881 262.769 290.371 262.108 292.506 C 261.398 294.832 258.596 296.333 255.723 295.45 C 254.439 295.056 252.596 294.101 253.009 292.757 C 253.179 292.206 253.573 291.79 253.785 291.32 C 253.978 290.909 254.072 290.604 254.131 290.421 C 254.656 288.709 253.938 286.48 252.103 285.913 C 250.39 285.387 248.638 285.804 247.959 288.008 C 247.188 290.512 248.387 295.058 254.809 297.036 C 262.333 299.351 268.694 295.253 269.598 289.913 C 270.167 286.568 268.655 284.08 265.888 280.885 L 263.632 278.389 C 262.267 277.025 261.799 274.699 263.212 272.912 C 264.405 271.403 266.103 270.761 268.886 271.516 C 272.95 272.618 274.759 275.437 277.78 277.712 C 276.535 281.805 275.718 285.912 274.981 289.594 L 274.528 292.341 C 272.369 303.666 270.72 309.887 266.435 313.457 C 265.572 314.072 264.338 314.99 262.479 315.057 C 261.502 315.086 261.187 314.414 261.174 314.121 C 261.152 313.438 261.728 313.123 262.111 312.817 C 262.685 312.505 263.55 311.986 263.49 310.327 C 263.429 308.367 261.804 306.666 259.457 306.744 C 257.699 306.803 255.019 308.457 255.12 311.487 C 255.223 314.617 258.14 316.961 262.538 316.813 C 264.889 316.733 270.139 315.778 275.312 309.629 C 281.333 302.578 283.018 294.498 284.285 288.583 L 285.7 280.773 C 286.483 280.867 287.325 280.931 288.238 280.953 C 295.738 281.112 299.488 277.229 299.545 274.402 C 299.583 272.692 298.424 271.008 296.799 271.048 C 295.639 271.08 294.18 271.854 293.831 273.46 C 293.487 275.034 296.216 276.457 294.083 277.842 C 292.568 278.822 289.853 279.511 286.027 278.952 L 286.723 275.108 C 288.142 267.818 289.893 258.852 296.536 258.633 C 297.021 258.61 298.79 258.654 298.832 259.826 C 298.843 260.215 298.746 260.318 298.288 261.213 C 297.821 261.91 297.646 262.507 297.669 263.188 C 297.732 265.048 299.147 266.272 301.197 266.201 C 303.937 266.11 304.723 263.443 304.678 262.072 C 304.563 258.849 301.168 256.813 296.677 256.961 Z " fill="rgb(255,255,255)"/></g></g></svg>