<svg width="300" height="300" viewBox="0 0 300 300" fill="none" xmlns="http://www.w3.org/2000/svg">
<path d="M223.929 57.1383L165.133 32.1811C123.262 14.408 74.9114 33.943 57.1382 75.8139L32.181 134.61C14.4079 176.48 33.9429 224.831 75.8138 242.604L134.609 267.562C176.48 285.335 224.831 265.8 242.604 223.929L267.562 165.133C285.335 123.262 265.8 74.9115 223.929 57.1383Z" fill="url(#paint0_linear)"/>
<path fill-rule="evenodd" clip-rule="evenodd" d="M92.4143 57.5303L123.264 44.4354C150.152 33.0221 162.786 31.3265 176.174 32.5303C189.562 33.7341 201.759 38.6622 212.226 47.0962C222.692 55.5301 230.603 65.5262 242.016 92.4143L255.111 123.264C266.524 150.152 268.22 162.786 267.016 176.174C265.812 189.562 260.884 201.759 252.45 212.226C244.016 222.692 234.02 230.603 207.132 242.016L176.282 255.111C149.394 266.524 136.76 268.22 123.372 267.016C109.985 265.812 97.7871 260.884 87.3206 252.45C76.8541 244.016 68.9436 234.02 57.5303 207.132L44.4354 176.282C33.022 149.394 31.3265 136.76 32.5303 123.372C33.7341 109.985 38.6622 97.7871 47.0961 87.3206C55.53 76.8541 65.5261 68.9437 92.4143 57.5303Z" fill="url(#paint1_linear)"/>
<path fill-rule="evenodd" clip-rule="evenodd" d="M182.849 108.831C201.844 108.831 215.927 122.75 215.927 145.349V190.709H189.235V149.606C189.235 138.307 183.831 132.903 174.988 132.903C170.895 132.903 166.801 134.705 162.871 139.454C163.034 141.419 163.198 143.384 163.198 145.349V190.709H136.67V149.606C136.67 138.307 131.102 132.903 122.423 132.903C118.329 132.903 114.399 134.868 110.469 139.945V190.709H83.9404V111.288H110.469V116.036C115.873 111.451 121.44 108.831 130.283 108.831C140.272 108.831 148.788 112.598 154.683 119.475C163.034 112.106 171.058 108.831 182.849 108.831Z" fill="white"/>
<g filter="url(#filter0_d)">
<rect x="180" y="180" width="100" height="100" rx="20" fill="white"/>
</g>
<path d="M219.619 252C219.619 252 216.598 253.758 221.771 254.351C228.039 255.067 231.242 254.964 238.148 253.659C238.148 253.659 239.967 254.796 242.503 255.782C227.017 262.416 207.458 255.397 219.619 252ZM217.726 243.341C217.726 243.341 214.337 245.85 219.514 246.386C226.21 247.077 231.496 247.134 240.649 245.372C240.649 245.372 241.911 246.655 243.9 247.356C225.182 252.831 204.333 247.787 217.726 243.341Z" fill="#0074BD"/>
<path d="M233.677 228.651C237.494 233.045 232.676 236.996 232.676 236.996C232.676 236.996 242.363 231.996 237.915 225.732C233.759 219.893 230.573 216.993 247.822 206.989C247.822 206.99 220.746 213.75 233.677 228.651Z" fill="#EA2D2E"/>
<path d="M254.156 258.405C254.156 258.405 256.392 260.249 251.692 261.674C242.757 264.381 214.494 265.197 206.644 261.782C203.824 260.554 209.115 258.852 210.78 258.493C212.515 258.117 213.506 258.185 213.506 258.185C210.368 255.976 193.222 262.526 204.798 264.404C236.366 269.522 262.343 262.1 254.156 258.405ZM221.073 234.368C221.073 234.368 206.698 237.783 215.983 239.024C219.904 239.549 227.717 239.429 234.999 238.818C240.949 238.318 246.919 237.25 246.919 237.25C246.919 237.25 244.823 238.149 243.305 239.185C228.705 243.025 200.507 241.236 208.626 237.31C215.489 233.991 221.073 234.368 221.073 234.368ZM246.86 248.782C261.7 241.072 254.838 233.663 250.048 234.661C248.877 234.905 248.352 235.117 248.352 235.117C248.352 235.117 248.788 234.434 249.619 234.14C259.094 230.81 266.38 243.963 246.563 249.173C246.563 249.171 246.791 248.965 246.86 248.782Z" fill="#0074BD"/>
<path d="M237.915 190.833C237.915 190.833 246.132 199.055 230.12 211.694C217.278 221.836 227.191 227.618 230.115 234.226C222.619 227.463 217.12 221.509 220.808 215.968C226.225 207.836 241.23 203.891 237.915 190.833Z" fill="#EA2D2E"/>
<path d="M222.532 269.679C236.773 270.589 258.649 269.172 259.167 262.433C259.167 262.433 258.171 264.987 247.396 267.014C235.239 269.303 220.242 269.036 211.35 267.568C211.35 267.569 213.172 269.077 222.532 269.679Z" fill="#0074BD"/>
<defs>
<filter id="filter0_d" x="176" y="176" width="108" height="108" filterUnits="userSpaceOnUse" color-interpolation-filters="sRGB">
<feFlood flood-opacity="0" result="BackgroundImageFix"/>
<feColorMatrix in="SourceAlpha" type="matrix" values="0 0 0 0 0 0 0 0 0 0 0 0 0 0 0 0 0 0 127 0"/>
<feOffset/>
<feGaussianBlur stdDeviation="2"/>
<feColorMatrix type="matrix" values="0 0 0 0 0 0 0 0 0 0 0 0 0 0 0 0 0 0 0.25 0"/>
<feBlend mode="normal" in2="BackgroundImageFix" result="effect1_dropShadow"/>
<feBlend mode="normal" in="SourceGraphic" in2="effect1_dropShadow" result="shape"/>
</filter>
<linearGradient id="paint0_linear" x1="101.746" y1="5.27474" x2="210.423" y2="299.743" gradientUnits="userSpaceOnUse">
<stop stop-color="#E41359"/>
<stop offset="1" stop-color="#F23C79"/>
</linearGradient>
<linearGradient id="paint1_linear" x1="107.839" y1="50.9829" x2="191.707" y2="248.563" gradientUnits="userSpaceOnUse">
<stop stop-color="#24222F"/>
<stop offset="1" stop-color="#2B2937"/>
</linearGradient>
</defs>
</svg>
