<svg width="300" height="300" viewBox="0 0 300 300" fill="none" xmlns="http://www.w3.org/2000/svg">
<path d="M0 236.999L55.426 96.7677C63.2367 77.0062 82.499 63.9999 103.955 63.9999H137.371L81.9447 204.232C74.1341 223.993 54.8717 236.999 33.4156 236.999H0Z" fill="url(#paint0_linear_1_13)"/>
<path d="M81.3123 237L136.738 96.7681C144.549 77.0066 163.811 64.0003 185.267 64.0003H218.683L163.257 204.232C155.446 223.994 136.184 237 114.728 237H81.3123Z" fill="url(#paint1_linear_1_13)"/>
<path d="M162.629 237L218.055 96.7681C225.866 77.0066 245.128 64.0003 266.584 64.0003H300L244.574 204.232C236.763 223.994 217.501 237 196.045 237H162.629Z" fill="url(#paint2_linear_1_13)"/>
<g filter="url(#filter0_d_1_13)">
<rect x="180" y="180" width="100" height="100" rx="20" fill="white"/>
</g>
<path fill-rule="evenodd" clip-rule="evenodd" d="M260.7 196.58C252.497 192.533 244.096 192.121 235.494 195.162C227.578 197.96 221.264 202.967 216.57 209.787C208.628 221.326 202.858 233.918 199.625 247.596C197.969 254.596 196.897 262.021 197.185 269.251C197.209 269.838 197.296 270.006 197.354 271.35H237.92C237.804 270.006 237.728 270.399 237.627 270.143C235.493 264.695 233.804 258.943 232.635 253.209C230.956 244.976 230.077 236.591 231.811 228.282C234.238 216.648 240.87 208.253 252.05 203.9C258.383 201.436 264.394 202.136 269.666 206.764C269.715 206.806 269.814 206.781 269.943 206.802L271.667 204.192C268.347 201.032 264.699 198.555 260.7 196.58V196.58ZM189.234 250.111C188.925 252.747 188.636 255.215 188.333 257.806L195.814 258.704L197.185 250.711C194.46 250.505 191.872 250.31 189.234 250.111V250.111ZM203.917 227.137L196.881 224.384L194.607 230.84L201.778 233.138C202.504 231.101 203.186 229.186 203.917 227.137V227.137ZM237.128 263.197C239.53 263.375 241.937 263.498 244.589 263.653C243.626 261.651 242.77 259.841 241.875 258.052C241.776 257.858 241.445 257.67 241.22 257.667C239.182 257.637 237.142 257.65 234.976 257.65C235.464 259.416 235.888 261.046 236.385 262.652C236.46 262.894 236.86 263.177 237.128 263.197V263.197ZM215.844 207.578L210.498 204.038C209.065 205.64 207.683 207.183 206.224 208.813L211.72 212.506L215.844 207.578ZM232.868 243.443C232.86 243.659 233.054 244.002 233.243 244.087C235.169 244.953 237.114 245.778 239.232 246.69C239.144 245.015 239.085 243.616 238.985 242.219C238.967 241.967 238.849 241.606 238.662 241.502C236.894 240.524 235.101 239.589 233.141 238.549C233.034 240.34 232.925 241.89 232.868 243.443V243.443ZM231.284 194.943L227.625 190.789L222.585 193.408C223.846 194.945 225.036 196.394 226.251 197.873L231.284 194.943ZM233.579 227.989C233.47 228.241 233.614 228.774 233.83 228.968C235.292 230.286 236.803 231.548 238.484 232.987C238.869 231.374 239.232 229.937 239.54 228.489C239.594 228.232 239.519 227.807 239.34 227.663C238.032 226.608 236.682 225.604 235.283 224.537C234.668 225.757 234.072 226.851 233.579 227.989ZM241.946 192.76C243.814 192.81 245.684 192.788 247.657 192.788C247.46 191.415 247.366 190.374 247.132 189.366C247.062 189.067 246.611 188.667 246.306 188.642C244.434 188.49 242.553 188.431 240.493 188.333C240.768 189.72 240.977 190.941 241.274 192.142C241.336 192.397 241.709 192.753 241.946 192.76V192.76ZM244.221 216.734C244.316 216.555 244.34 216.231 244.24 216.075C243.322 214.639 242.369 213.225 241.381 211.737L238.183 214.675L242.606 219.576C243.2 218.542 243.731 217.649 244.221 216.734V216.734ZM247.671 206.972L249.582 210.52C252.572 208.882 252.858 208.289 251.8 205.928L247.671 206.972V206.972ZM261.976 196.036C263.22 196.803 264.534 197.457 265.869 198.176L266.762 196.785C265.135 195.595 263.564 194.444 261.781 193.139C261.711 193.881 261.607 194.399 261.634 194.911C261.655 195.301 261.72 195.879 261.976 196.036V196.036ZM260.241 207.271C261.585 207.417 263.601 207.556 264.945 207.703V205.877C263.601 205.583 261.585 205.291 260.241 204.988V207.271Z" fill="#A62C46"/>
<defs>
<filter id="filter0_d_1_13" x="176" y="176" width="108" height="108" filterUnits="userSpaceOnUse" color-interpolation-filters="sRGB">
<feFlood flood-opacity="0" result="BackgroundImageFix"/>
<feColorMatrix in="SourceAlpha" type="matrix" values="0 0 0 0 0 0 0 0 0 0 0 0 0 0 0 0 0 0 127 0" result="hardAlpha"/>
<feOffset/>
<feGaussianBlur stdDeviation="2"/>
<feColorMatrix type="matrix" values="0 0 0 0 0 0 0 0 0 0 0 0 0 0 0 0 0 0 0.25 0"/>
<feBlend mode="normal" in2="BackgroundImageFix" result="effect1_dropShadow_1_13"/>
<feBlend mode="normal" in="SourceGraphic" in2="effect1_dropShadow_1_13" result="shape"/>
</filter>
<linearGradient id="paint0_linear_1_13" x1="300.001" y1="50.7857" x2="1.63474" y2="221.244" gradientUnits="userSpaceOnUse">
<stop stop-color="#FF5CAA"/>
<stop offset="1" stop-color="#FF4E62"/>
</linearGradient>
<linearGradient id="paint1_linear_1_13" x1="300.001" y1="50.7857" x2="1.63474" y2="221.244" gradientUnits="userSpaceOnUse">
<stop stop-color="#FF5CAA"/>
<stop offset="1" stop-color="#FF4E62"/>
</linearGradient>
<linearGradient id="paint2_linear_1_13" x1="300.001" y1="50.7857" x2="1.63474" y2="221.244" gradientUnits="userSpaceOnUse">
<stop stop-color="#FF5CAA"/>
<stop offset="1" stop-color="#FF4E62"/>
</linearGradient>
</defs>
</svg>
