<svg width="300" height="300" viewBox="0 0 300 300" fill="none" xmlns="http://www.w3.org/2000/svg">
<path d="M0 236.999L55.426 96.7677C63.2367 77.0062 82.499 63.9999 103.955 63.9999H137.371L81.9447 204.232C74.1341 223.993 54.8717 236.999 33.4156 236.999H0Z" fill="url(#paint0_linear_1_183)"/>
<path d="M81.3123 237L136.738 96.7681C144.549 77.0066 163.811 64.0003 185.267 64.0003H218.683L163.257 204.232C155.446 223.994 136.184 237 114.728 237H81.3123Z" fill="url(#paint1_linear_1_183)"/>
<path d="M162.629 237L218.055 96.7681C225.866 77.0066 245.128 64.0003 266.584 64.0003H300L244.574 204.232C236.763 223.994 217.501 237 196.045 237H162.629Z" fill="url(#paint2_linear_1_183)"/>
<g filter="url(#filter0_d_1_183)">
<rect x="180" y="180" width="100" height="100" rx="20" fill="white"/>
<path d="M248.316 240.547L210.254 263.148L259.538 259.804L263.333 210.109L248.316 240.547Z" fill="url(#paint3_linear_1_183)"/>
<path d="M259.618 259.77L255.382 230.534L243.844 245.769L259.618 259.77Z" fill="url(#paint4_linear_1_183)"/>
<path d="M259.675 259.77L228.642 257.334L210.419 263.085L259.675 259.77Z" fill="url(#paint5_linear_1_183)"/>
<path d="M210.463 263.091L218.216 237.693L201.155 241.341L210.463 263.091Z" fill="url(#paint6_linear_1_183)"/>
<path d="M243.841 245.853L236.708 217.912L216.294 237.048L243.841 245.853Z" fill="url(#paint7_linear_1_183)"/>
<path d="M261.715 218.305L242.418 202.545L237.045 219.917L261.715 218.305Z" fill="url(#paint8_linear_1_183)"/>
<path d="M252.691 196.926L241.341 203.198L234.181 196.842L252.691 196.926Z" fill="url(#paint9_linear_1_183)"/>
<path d="M196.667 249.861L201.421 241.19L197.575 230.86L196.667 249.861Z" fill="url(#paint10_linear_1_183)"/>
<path d="M197.32 230.534L201.188 241.509L218.002 237.737L237.199 219.897L242.616 202.69L234.087 196.667L219.584 202.094C215.015 206.344 206.149 214.753 205.83 214.911C205.513 215.072 199.974 225.54 197.32 230.534V230.534Z" fill="white"/>
<path d="M210.907 210.816C220.809 200.998 233.575 195.197 238.475 200.14C243.371 205.082 238.179 217.095 228.276 226.91C218.373 236.725 205.765 242.845 200.87 237.902C195.97 232.963 201.004 220.631 210.907 210.816V210.816Z" fill="url(#paint11_linear_1_183)"/>
<path d="M210.463 263.081L218.154 237.603L243.7 245.809C234.464 254.47 224.191 261.792 210.463 263.081V263.081Z" fill="url(#paint12_linear_1_183)"/>
<path d="M237.233 219.847L243.791 245.823C251.507 237.711 258.431 228.989 261.822 218.201L237.233 219.847Z" fill="url(#paint13_linear_1_183)"/>
<path d="M261.755 218.333C264.38 210.412 264.985 199.049 252.609 196.94L242.455 202.549L261.755 218.333V218.333Z" fill="url(#paint14_linear_1_183)"/>
<path d="M196.667 249.747C197.03 262.819 206.461 263.013 210.479 263.128L201.199 241.456L196.667 249.747V249.747Z" fill="#9E1209"/>
<path d="M237.269 219.887C243.199 223.531 255.147 230.85 255.389 230.985C255.765 231.197 260.541 222.932 261.624 218.262L237.269 219.887V219.887Z" fill="url(#paint15_radial_1_183)"/>
<path d="M218.144 237.603L228.427 257.442C234.507 254.144 239.268 250.126 243.629 245.823L218.144 237.603Z" fill="url(#paint16_radial_1_183)"/>
<path d="M201.158 241.483L199.701 258.831C202.45 262.586 206.232 262.913 210.2 262.62C207.33 255.477 201.596 241.193 201.158 241.483V241.483Z" fill="url(#paint17_linear_1_183)"/>
<path d="M242.395 202.592L262.822 205.459C261.732 200.839 258.384 197.858 252.678 196.926L242.395 202.592V202.592Z" fill="url(#paint18_linear_1_183)"/>
</g>
<defs>
<filter id="filter0_d_1_183" x="176" y="176" width="108" height="108" filterUnits="userSpaceOnUse" color-interpolation-filters="sRGB">
<feFlood flood-opacity="0" result="BackgroundImageFix"/>
<feColorMatrix in="SourceAlpha" type="matrix" values="0 0 0 0 0 0 0 0 0 0 0 0 0 0 0 0 0 0 127 0" result="hardAlpha"/>
<feOffset/>
<feGaussianBlur stdDeviation="2"/>
<feColorMatrix type="matrix" values="0 0 0 0 0 0 0 0 0 0 0 0 0 0 0 0 0 0 0.25 0"/>
<feBlend mode="normal" in2="BackgroundImageFix" result="effect1_dropShadow_1_183"/>
<feBlend mode="normal" in="SourceGraphic" in2="effect1_dropShadow_1_183" result="shape"/>
</filter>
<linearGradient id="paint0_linear_1_183" x1="300.001" y1="50.7857" x2="1.63474" y2="221.244" gradientUnits="userSpaceOnUse">
<stop stop-color="#FF5CAA"/>
<stop offset="1" stop-color="#FF4E62"/>
</linearGradient>
<linearGradient id="paint1_linear_1_183" x1="300.001" y1="50.7857" x2="1.63474" y2="221.244" gradientUnits="userSpaceOnUse">
<stop stop-color="#FF5CAA"/>
<stop offset="1" stop-color="#FF4E62"/>
</linearGradient>
<linearGradient id="paint2_linear_1_183" x1="300.001" y1="50.7857" x2="1.63474" y2="221.244" gradientUnits="userSpaceOnUse">
<stop stop-color="#FF5CAA"/>
<stop offset="1" stop-color="#FF4E62"/>
</linearGradient>
<linearGradient id="paint3_linear_1_183" x1="255.239" y1="269.195" x2="241.175" y2="244.364" gradientUnits="userSpaceOnUse">
<stop stop-color="#FB7655"/>
<stop offset="0.41" stop-color="#E42B1E"/>
<stop offset="0.99" stop-color="#990000"/>
<stop offset="1" stop-color="#990000"/>
</linearGradient>
<linearGradient id="paint4_linear_1_183" x1="262.244" y1="248.336" x2="244.119" y2="236.173" gradientUnits="userSpaceOnUse">
<stop stop-color="#871101"/>
<stop offset="0.99" stop-color="#911209"/>
<stop offset="1" stop-color="#911209"/>
</linearGradient>
<linearGradient id="paint5_linear_1_183" x1="247.742" y1="269.948" x2="229.618" y2="257.785" gradientUnits="userSpaceOnUse">
<stop stop-color="#871101"/>
<stop offset="0.99" stop-color="#911209"/>
<stop offset="1" stop-color="#911209"/>
</linearGradient>
<linearGradient id="paint6_linear_1_183" x1="209.688" y1="239.53" x2="212.497" y2="257.791" gradientUnits="userSpaceOnUse">
<stop stop-color="white"/>
<stop offset="0.23" stop-color="#E57252"/>
<stop offset="0.46" stop-color="#DE3B20"/>
<stop offset="0.99" stop-color="#A60003"/>
<stop offset="1" stop-color="#A60003"/>
</linearGradient>
<linearGradient id="paint7_linear_1_183" x1="229.014" y1="222.48" x2="230.049" y2="241.117" gradientUnits="userSpaceOnUse">
<stop stop-color="white"/>
<stop offset="0.23" stop-color="#E4714E"/>
<stop offset="0.56" stop-color="#BE1A0D"/>
<stop offset="0.99" stop-color="#A80D00"/>
<stop offset="1" stop-color="#A80D00"/>
</linearGradient>
<linearGradient id="paint8_linear_1_183" x1="246.164" y1="205.254" x2="249.264" y2="218.611" gradientUnits="userSpaceOnUse">
<stop stop-color="white"/>
<stop offset="0.18" stop-color="#E46342"/>
<stop offset="0.4" stop-color="#C82410"/>
<stop offset="0.99" stop-color="#A80D00"/>
<stop offset="1" stop-color="#A80D00"/>
</linearGradient>
<linearGradient id="paint9_linear_1_183" x1="236.7" y1="200.55" x2="250.055" y2="193.873" gradientUnits="userSpaceOnUse">
<stop stop-color="white"/>
<stop offset="0.54" stop-color="#C81F11"/>
<stop offset="0.99" stop-color="#BF0905"/>
<stop offset="1" stop-color="#BF0905"/>
</linearGradient>
<linearGradient id="paint10_linear_1_183" x1="197.98" y1="234.876" x2="199.08" y2="245.881" gradientUnits="userSpaceOnUse">
<stop stop-color="white"/>
<stop offset="0.31" stop-color="#DE4024"/>
<stop offset="0.99" stop-color="#BF190B"/>
<stop offset="1" stop-color="#BF190B"/>
</linearGradient>
<linearGradient id="paint11_linear_1_183" x1="190.423" y1="248.856" x2="242.096" y2="195.721" gradientUnits="userSpaceOnUse">
<stop stop-color="#BD0012"/>
<stop offset="0.07" stop-color="white"/>
<stop offset="0.17" stop-color="white"/>
<stop offset="0.27" stop-color="#C82F1C"/>
<stop offset="0.33" stop-color="#820C01"/>
<stop offset="0.46" stop-color="#A31601"/>
<stop offset="0.72" stop-color="#B31301"/>
<stop offset="0.99" stop-color="#E82609"/>
<stop offset="1" stop-color="#E82609"/>
</linearGradient>
<linearGradient id="paint12_linear_1_183" x1="230.004" y1="254.215" x2="214.439" y2="250.374" gradientUnits="userSpaceOnUse">
<stop stop-color="#8C0C01"/>
<stop offset="0.54" stop-color="#990C00"/>
<stop offset="0.99" stop-color="#A80D0E"/>
<stop offset="1" stop-color="#A80D0E"/>
</linearGradient>
<linearGradient id="paint13_linear_1_183" x1="256.737" y1="235.535" x2="242.909" y2="223.143" gradientUnits="userSpaceOnUse">
<stop stop-color="#7E110B"/>
<stop offset="0.99" stop-color="#9E0C00"/>
<stop offset="1" stop-color="#9E0C00"/>
</linearGradient>
<linearGradient id="paint14_linear_1_183" x1="261.817" y1="212.797" x2="254.93" y2="205.433" gradientUnits="userSpaceOnUse">
<stop stop-color="#79130D"/>
<stop offset="0.99" stop-color="#9E120B"/>
<stop offset="1" stop-color="#9E120B"/>
</linearGradient>
<radialGradient id="paint15_radial_1_183" cx="0" cy="0" r="1" gradientUnits="userSpaceOnUse" gradientTransform="translate(245.063 223.38) scale(16.9446)">
<stop stop-color="#A80D00"/>
<stop offset="0.99" stop-color="#7E0E08"/>
<stop offset="1" stop-color="#7E0E08"/>
</radialGradient>
<radialGradient id="paint16_radial_1_183" cx="0" cy="0" r="1" gradientUnits="userSpaceOnUse" gradientTransform="translate(221.597 245.708) scale(22.5251)">
<stop stop-color="#A30C00"/>
<stop offset="0.99" stop-color="#800E08"/>
<stop offset="1" stop-color="#800E08"/>
</radialGradient>
<linearGradient id="paint17_linear_1_183" x1="205.641" y1="263.068" x2="200.028" y2="244.024" gradientUnits="userSpaceOnUse">
<stop stop-color="#8B2114"/>
<stop offset="0.43" stop-color="#9E100A"/>
<stop offset="0.99" stop-color="#B3100C"/>
<stop offset="1" stop-color="#B3100C"/>
</linearGradient>
<linearGradient id="paint18_linear_1_183" x1="248.7" y1="199.964" x2="261.283" y2="205.519" gradientUnits="userSpaceOnUse">
<stop stop-color="#B31000"/>
<stop offset="0.44" stop-color="#910F08"/>
<stop offset="0.99" stop-color="#791C12"/>
<stop offset="1" stop-color="#791C12"/>
</linearGradient>
</defs>
</svg>
