<svg width="300" height="300" viewBox="0 0 300 300" fill="none" xmlns="http://www.w3.org/2000/svg">
<path d="M0 236.999L55.426 96.7677C63.2367 77.0062 82.499 63.9999 103.955 63.9999H137.371L81.9447 204.232C74.1341 223.993 54.8717 236.999 33.4156 236.999H0Z" fill="url(#paint0_linear_1_212)"/>
<path d="M81.3123 237L136.738 96.7681C144.549 77.0066 163.811 64.0003 185.267 64.0003H218.683L163.257 204.232C155.446 223.994 136.184 237 114.728 237H81.3123Z" fill="url(#paint1_linear_1_212)"/>
<path d="M162.629 237L218.055 96.7681C225.866 77.0066 245.128 64.0003 266.584 64.0003H300L244.574 204.232C236.763 223.994 217.501 237 196.045 237H162.629Z" fill="url(#paint2_linear_1_212)"/>
<g filter="url(#filter0_d_1_212)">
<path d="M175 175H280.184V280.185H175V175Z" fill="#F0DB4F"/>
</g>
<path d="M271.575 255.098C270.805 250.299 267.676 246.269 258.407 242.51C255.187 241.031 251.598 239.971 250.528 237.531C250.149 236.111 250.098 235.311 250.338 234.452C251.028 231.662 254.358 230.792 256.997 231.592C258.697 232.162 260.306 233.472 261.277 235.562C265.816 232.623 265.806 232.642 268.976 230.622C267.815 228.823 267.196 227.993 266.437 227.223C263.707 224.174 259.987 222.604 254.038 222.724L250.939 223.124C247.97 223.875 245.14 225.433 243.48 227.523C238.501 233.173 239.921 243.061 245.98 247.13C251.949 251.61 260.718 252.629 261.838 256.819C262.928 261.948 258.069 263.608 253.239 263.018C249.68 262.278 247.7 260.469 245.56 257.179C241.621 259.459 241.621 259.459 237.571 261.788C238.531 263.888 239.541 264.838 241.15 266.657C248.77 274.386 267.836 274.006 271.256 262.308C271.395 261.906 272.316 259.228 271.575 255.098V255.098ZM232.181 223.343H222.343L222.302 248.779C222.302 254.188 222.582 259.147 221.702 260.667C220.263 263.657 216.533 263.286 214.833 262.706C213.103 261.856 212.224 260.647 211.204 258.938C210.925 258.447 210.715 258.067 210.644 258.038L202.645 262.937C203.975 265.667 205.935 268.036 208.444 269.575C212.193 271.825 217.232 272.515 222.502 271.305C225.932 270.306 228.891 268.237 230.441 265.087C232.681 260.957 232.2 255.958 232.18 250.43C232.231 241.41 232.181 232.391 232.181 223.343Z" fill="#323330"/>
<defs>
<filter id="filter0_d_1_212" x="171" y="171" width="113.184" height="113.185" filterUnits="userSpaceOnUse" color-interpolation-filters="sRGB">
<feFlood flood-opacity="0" result="BackgroundImageFix"/>
<feColorMatrix in="SourceAlpha" type="matrix" values="0 0 0 0 0 0 0 0 0 0 0 0 0 0 0 0 0 0 127 0" result="hardAlpha"/>
<feOffset/>
<feGaussianBlur stdDeviation="2"/>
<feColorMatrix type="matrix" values="0 0 0 0 0 0 0 0 0 0 0 0 0 0 0 0 0 0 0.25 0"/>
<feBlend mode="normal" in2="BackgroundImageFix" result="effect1_dropShadow_1_212"/>
<feBlend mode="normal" in="SourceGraphic" in2="effect1_dropShadow_1_212" result="shape"/>
</filter>
<linearGradient id="paint0_linear_1_212" x1="300.001" y1="50.7857" x2="1.63474" y2="221.244" gradientUnits="userSpaceOnUse">
<stop stop-color="#FF5CAA"/>
<stop offset="1" stop-color="#FF4E62"/>
</linearGradient>
<linearGradient id="paint1_linear_1_212" x1="300.001" y1="50.7857" x2="1.63474" y2="221.244" gradientUnits="userSpaceOnUse">
<stop stop-color="#FF5CAA"/>
<stop offset="1" stop-color="#FF4E62"/>
</linearGradient>
<linearGradient id="paint2_linear_1_212" x1="300.001" y1="50.7857" x2="1.63474" y2="221.244" gradientUnits="userSpaceOnUse">
<stop stop-color="#FF5CAA"/>
<stop offset="1" stop-color="#FF4E62"/>
</linearGradient>
</defs>
</svg>
