<svg width="300" height="300" viewBox="0 0 300 300" fill="none" xmlns="http://www.w3.org/2000/svg">
<path d="M0 236.999L55.426 96.7677C63.2367 77.0062 82.499 63.9999 103.955 63.9999H137.371L81.9447 204.232C74.1341 223.993 54.8717 236.999 33.4156 236.999H0Z" fill="url(#paint0_linear_1_497)"/>
<path d="M81.3123 237L136.738 96.7681C144.549 77.0066 163.811 64.0003 185.267 64.0003H218.683L163.257 204.232C155.446 223.994 136.184 237 114.728 237H81.3123Z" fill="url(#paint1_linear_1_497)"/>
<path d="M162.629 237L218.055 96.7681C225.866 77.0066 245.128 64.0003 266.584 64.0003H300L244.574 204.232C236.763 223.994 217.501 237 196.045 237H162.629Z" fill="url(#paint2_linear_1_497)"/>
<g filter="url(#filter0_d_1_497)">
<rect x="180" y="180" width="100" height="100" rx="20" fill="white"/>
</g>
<g clip-path="url(#clip0_1_497)">
<path d="M230.004 262V249.6C243.14 249.6 253.336 236.6 248.292 222.764C247.365 220.225 245.895 217.919 243.983 216.008C242.072 214.098 239.765 212.628 237.226 211.702C223.402 206.698 210.376 216.852 210.376 229.982H198C198 209.056 218.248 192.738 240.2 199.592C249.8 202.602 257.436 210.218 260.41 219.792C267.27 241.772 250.976 262.006 230.004 262.006V262Z" fill="#0080FF"/>
<path d="M217.7 249.634V237.304H230.036V249.634H217.7ZM208.194 259.134V249.634H217.7V259.134H208.194ZM208.194 249.634H200.248V241.694H208.194V249.634Z" fill="#0080FF"/>
</g>
<defs>
<filter id="filter0_d_1_497" x="176" y="176" width="108" height="108" filterUnits="userSpaceOnUse" color-interpolation-filters="sRGB">
<feFlood flood-opacity="0" result="BackgroundImageFix"/>
<feColorMatrix in="SourceAlpha" type="matrix" values="0 0 0 0 0 0 0 0 0 0 0 0 0 0 0 0 0 0 127 0" result="hardAlpha"/>
<feOffset/>
<feGaussianBlur stdDeviation="2"/>
<feColorMatrix type="matrix" values="0 0 0 0 0 0 0 0 0 0 0 0 0 0 0 0 0 0 0.25 0"/>
<feBlend mode="normal" in2="BackgroundImageFix" result="effect1_dropShadow_1_497"/>
<feBlend mode="normal" in="SourceGraphic" in2="effect1_dropShadow_1_497" result="shape"/>
</filter>
<linearGradient id="paint0_linear_1_497" x1="300.001" y1="50.7857" x2="1.63474" y2="221.244" gradientUnits="userSpaceOnUse">
<stop stop-color="#FF5CAA"/>
<stop offset="1" stop-color="#FF4E62"/>
</linearGradient>
<linearGradient id="paint1_linear_1_497" x1="300.001" y1="50.7857" x2="1.63474" y2="221.244" gradientUnits="userSpaceOnUse">
<stop stop-color="#FF5CAA"/>
<stop offset="1" stop-color="#FF4E62"/>
</linearGradient>
<linearGradient id="paint2_linear_1_497" x1="300.001" y1="50.7857" x2="1.63474" y2="221.244" gradientUnits="userSpaceOnUse">
<stop stop-color="#FF5CAA"/>
<stop offset="1" stop-color="#FF4E62"/>
</linearGradient>
<clipPath id="clip0_1_497">
<rect width="64" height="64" fill="white" transform="translate(198 198)"/>
</clipPath>
</defs>
</svg>
